<svg xmlns="http://www.w3.org/2000/svg" viewBox="0 0 181.34 146.93"><defs><style>.cls-1{fill:#434f5e;}.cls-2{fill:#f5f8f1;}.cls-3{fill:#f49461;}.cls-4{fill:#dbccb8;}.cls-5{fill:#f2c87e;}.cls-6{fill:#fff6b1;}.cls-7{fill:#e16162;}.cls-8{fill:#00c5b4;}.cls-9{fill:#00b297;}.cls-10{fill:#d0d1d2;}.cls-11{fill:#e6e6e6;}.cls-12{fill:#f3f3f5;}.cls-13{fill:#4b72bf;}.cls-14{fill:#f2c859;}.cls-15{fill:#fff;}.cls-16{fill:#b83b5b;}.cls-17{fill:#4c4c72;}.cls-18{fill:#1d9e88;}</style></defs><title>asset_1</title><g id="Layer_2" data-name="Layer 2"><g id="Objects"><path class="cls-1" d="M102.53,85l-.07,0a3,3,0,0,1-3.12.15c.45,1.82.17,2.8-.92,3.43a2.38,2.38,0,0,1-2.88-.38c-.83-.83-.9-1.93-.12-3.35l-.73.34a2.41,2.41,0,1,1-1.82-4.45A2.67,2.67,0,0,1,95,81a8.44,8.44,0,0,1-.27-1.38,7.77,7.77,0,0,1,.19-1.35l-.52.11a2.46,2.46,0,0,1-2.85-3.44l.25-.57.43-.31a3,3,0,0,1,2.85-.26,3,3,0,0,1,.12-2.84,2.66,2.66,0,0,1-2.92-.08c-.07-.05-.19,0-.29,0h0c-.11-.23-.2-.47-.32-.69A2.4,2.4,0,0,1,95,66.91a2.38,2.38,0,0,1,1,2.79c-.06.19-.13.37-.24.69a3,3,0,0,1,2.81-.09c-.07-.24-.11-.4-.15-.56a2.33,2.33,0,0,1,.79-2.6,2.36,2.36,0,0,1,2.71-.28l.49.22.4.38a.69.69,0,0,0,0,.23,2.76,2.76,0,0,1,0,2.73,2.83,2.83,0,0,1,3,.12l-.24-.67A2.41,2.41,0,0,1,106.5,67a2.37,2.37,0,0,1,3,.19,2.41,2.41,0,0,1,.52,2.92c-.1.21-.17.43-.25.64l0,0a2.84,2.84,0,0,0-.49.21,2.41,2.41,0,0,1-2.36.26l-.37-.13a3.51,3.51,0,0,1,0,2.75c.22-.07.41-.14.6-.18a2.41,2.41,0,0,1,2.51.84,2.36,2.36,0,0,1,.27,2.69l-.38.75h0a1.49,1.49,0,0,0-.37.12,2.65,2.65,0,0,1-2.7.12,7.42,7.42,0,0,1,.25,1.44,6.78,6.78,0,0,1-.32,1.39l.64-.23a2.41,2.41,0,1,1-.17,4.54c-.33-.13-.64-.32-1-.48l-.08,0c-.08-.21-.14-.43-.24-.63a2.42,2.42,0,0,1-.09-2l.26-.68a2.85,2.85,0,0,1-2.94.19,2.73,2.73,0,0,1-.2,3,.8.8,0,0,0-.07.22Zm-3.92-3.31a3.22,3.22,0,0,1-2.85,0,2.87,2.87,0,0,1-.17,3,2.79,2.79,0,0,1,3.14-.12A3,3,0,0,1,98.61,81.69ZM102,78.34a2.89,2.89,0,0,1-2.47,0,7.49,7.49,0,0,1,.15,1.35A7.31,7.31,0,0,1,99.37,81a3,3,0,0,1,2.79,0A3.07,3.07,0,0,1,102,78.34ZM95.9,74.65a3.17,3.17,0,0,1,0,2.67,3.28,3.28,0,0,1,2.62,0,3.29,3.29,0,0,1,0-2.61A3.39,3.39,0,0,1,95.9,74.65Zm3.59-3.48a3,3,0,0,1-.05,2.67,3.15,3.15,0,0,1,2.71,0,3.08,3.08,0,0,1,.08-2.74A3,3,0,0,1,99.49,71.17Zm6.12,3.64a8.58,8.58,0,0,1-1.24.22,7,7,0,0,1-1.09-.12v2.37a3,3,0,0,1,2.41.16A2.9,2.9,0,0,1,105.61,74.81Z"/><path class="cls-1" d="M92,70.82h0a2.49,2.49,0,0,1,.28,2.93.86.86,0,0,0,0,.29l-.43.31a2.79,2.79,0,0,1-2.16.42,2.32,2.32,0,0,1-1.75-1.9,2.23,2.23,0,0,1,1-2.32,2.27,2.27,0,0,1,2.57-.14A5.2,5.2,0,0,1,92,70.82Z"/><path class="cls-1" d="M92.57,79.49a2.38,2.38,0,1,1-2.4-2.38A2.4,2.4,0,0,1,92.57,79.49Z"/><path class="cls-1" d="M105.87,84.83l.08,0a2.54,2.54,0,0,1,.63,2.3,2.39,2.39,0,0,1-4.21.9,2.31,2.31,0,0,1-.21-2.57,3.18,3.18,0,0,1,.37-.49l0-.05A2.38,2.38,0,0,1,105.87,84.83Z"/><path class="cls-1" d="M109.57,78h0a2.38,2.38,0,1,1,.81,3.82,2.36,2.36,0,0,1-1.24-3.19A4.52,4.52,0,0,1,109.57,78Z"/><path class="cls-1" d="M97.29,63a2.39,2.39,0,1,1-2.37,2.4A2.39,2.39,0,0,1,97.29,63Z"/><path class="cls-1" d="M102.86,67.46l-.4-.38c-.09-.19-.18-.37-.27-.56A2.38,2.38,0,0,1,106,63.81a2.37,2.37,0,0,1-2.57,3.89Z"/><path class="cls-1" d="M109.76,70.77l0,0a2.56,2.56,0,0,1,1.64-.63,2.37,2.37,0,0,1,1.32,4.36,2.42,2.42,0,0,1-2.9-.21,2.35,2.35,0,0,1-.56-2.78A6.11,6.11,0,0,1,109.76,70.77Z"/><path class="cls-1" d="M86.71,73.65a2.33,2.33,0,1,1,.07,4.67,2.33,2.33,0,0,1-.07-4.67Z"/><path class="cls-1" d="M103.06,90.17a2.31,2.31,0,0,1-2.35,2.29,2.32,2.32,0,1,1,.06-4.65A2.3,2.3,0,0,1,103.06,90.17Z"/><path class="cls-1" d="M114.79,73.75a2.31,2.31,0,1,1,0,4.63,2.31,2.31,0,1,1,0-4.63Z"/><path class="cls-1" d="M111.29,88.94a2.32,2.32,0,1,1,2.32-2.28A2.32,2.32,0,0,1,111.29,88.94Z"/><path class="cls-1" d="M100.8,59.68a2.31,2.31,0,1,1,0,4.62,2.31,2.31,0,0,1,0-4.62Z"/><path class="cls-1" d="M113.68,65.51a2.3,2.3,0,1,1-2.34-2.32A2.32,2.32,0,0,1,113.68,65.51Z"/><path class="cls-1" d="M90.16,84.24a2.3,2.3,0,1,1-2.28,2.29A2.3,2.3,0,0,1,90.16,84.24Z"/><path class="cls-1" d="M90.24,63.14A2.29,2.29,0,1,1,88,65.41,2.28,2.28,0,0,1,90.24,63.14Z"/><path class="cls-1" d="M96,90.06a2.3,2.3,0,1,1-2.29-2.3A2.33,2.33,0,0,1,96,90.06Z"/><path class="cls-1" d="M107.77,87.85a2.29,2.29,0,1,1-2.28,2.29A2.29,2.29,0,0,1,107.77,87.85Z"/><path class="cls-1" d="M114.75,85.38a2.28,2.28,0,0,1,.11-4.57,2.28,2.28,0,1,1-.11,4.57Z"/><path class="cls-1" d="M114.92,71.31A2.28,2.28,0,1,1,117.18,69,2.25,2.25,0,0,1,114.92,71.31Z"/><path class="cls-1" d="M89,68.92a2.3,2.3,0,0,1-2.23,2.33,2.3,2.3,0,1,1-.06-4.6A2.29,2.29,0,0,1,89,68.92Z"/><path class="cls-1" d="M86.68,80.72a2.3,2.3,0,1,1-.07,4.61,2.3,2.3,0,0,1,.07-4.61Z"/><path class="cls-1" d="M110.13,62a2.25,2.25,0,0,1-2.31,2.25A2.28,2.28,0,1,1,110.13,62Z"/><path class="cls-1" d="M96.06,61.89a2.29,2.29,0,0,1-2.25,2.32,2.3,2.3,0,0,1-.05-4.59A2.28,2.28,0,0,1,96.06,61.89Z"/><path class="cls-1" d="M99.47,93.66a2.24,2.24,0,0,1-2.28,2.18,2.26,2.26,0,1,1,.07-4.52A2.26,2.26,0,0,1,99.47,93.66Z"/><path class="cls-1" d="M83.26,74.72a2.25,2.25,0,1,1,0-4.51,2.25,2.25,0,0,1,0,4.51Z"/><path class="cls-1" d="M83.06,81.76a2.25,2.25,0,1,1,2.32-2.15A2.25,2.25,0,0,1,83.06,81.76Z"/><path class="cls-1" d="M120.58,79.61a2.22,2.22,0,0,1-2.25,2.22,2.24,2.24,0,1,1,.05-4.48A2.22,2.22,0,0,1,120.58,79.61Z"/><path class="cls-1" d="M97.28,60.64a2.25,2.25,0,0,1,0-4.51,2.25,2.25,0,1,1,0,4.51Z"/><path class="cls-1" d="M106.51,93.69a2.22,2.22,0,0,1-2.23,2.22,2.24,2.24,0,1,1,.05-4.49A2.22,2.22,0,0,1,106.51,93.69Z"/><path class="cls-1" d="M118.42,70.31a2.23,2.23,0,1,1,0,4.47,2.23,2.23,0,0,1,0-4.47Z"/><path class="cls-1" d="M104.37,56.24a2.23,2.23,0,1,1-.1,4.47,2.23,2.23,0,0,1,.1-4.47Z"/><path class="cls-1" d="M117,90.12a2.22,2.22,0,0,1-2.22,2.24,2.22,2.22,0,0,1,0-4.44A2.21,2.21,0,0,1,117,90.12Z"/><path class="cls-1" d="M86.62,92.26a2.2,2.2,0,1,1,.09-4.4,2.2,2.2,0,0,1-.09,4.4Z"/><path class="cls-1" d="M112.7,62a2.19,2.19,0,0,1,2.21-2.23,2.21,2.21,0,0,1,0,4.42A2.21,2.21,0,0,1,112.7,62Z"/><path class="cls-1" d="M89,61.88a2.21,2.21,0,0,1-2.13,2.23,2.2,2.2,0,0,1-.15-4.39A2.21,2.21,0,0,1,89,61.88Z"/><path class="cls-1" d="M116.15,86.6a2.17,2.17,0,0,1,2.19-2.17,2.19,2.19,0,1,1,0,4.39A2.16,2.16,0,0,1,116.15,86.6Z"/><path class="cls-1" d="M111.3,91.46a2.19,2.19,0,1,1,0,4.39,2.19,2.19,0,0,1,0-4.39Z"/><path class="cls-1" d="M120.59,65.52a2.16,2.16,0,0,1-2.17,2.18,2.19,2.19,0,1,1,0-4.38A2.17,2.17,0,0,1,120.59,65.52Z"/><path class="cls-1" d="M113.55,58.53a2.16,2.16,0,0,1-2.21,2.13,2.19,2.19,0,1,1,.11-4.38A2.17,2.17,0,0,1,113.55,58.53Z"/><path class="cls-1" d="M90.23,91.39a2.21,2.21,0,0,1,2.16,2.22,2.24,2.24,0,0,1-2.2,2.18A2.19,2.19,0,0,1,88,93.52,2.17,2.17,0,0,1,90.23,91.39Z"/><path class="cls-1" d="M81,86.52a2.17,2.17,0,0,1,2.19-2.17A2.2,2.2,0,1,1,81,86.52Z"/><path class="cls-1" d="M79.73,78.17a2.19,2.19,0,0,1,0-4.37,2.19,2.19,0,1,1,0,4.37Z"/><path class="cls-1" d="M102.92,97.23a2.18,2.18,0,0,1-2.23,2.14,2.22,2.22,0,0,1-2.14-2.25A2.2,2.2,0,0,1,100.8,95,2.15,2.15,0,0,1,102.92,97.23Z"/><path class="cls-1" d="M92.44,58.46a2.18,2.18,0,0,1-2.23,2.12,2.22,2.22,0,0,1-2.15-2.23,2.2,2.2,0,0,1,2.29-2.15A2.15,2.15,0,0,1,92.44,58.46Z"/><path class="cls-1" d="M85.4,65.43a2.18,2.18,0,0,1-2.16,2.2A2.23,2.23,0,0,1,81,65.4a2.2,2.2,0,0,1,2.22-2.15A2.15,2.15,0,0,1,85.4,65.43Z"/><path class="cls-1" d="M121.85,73.89a2.18,2.18,0,0,1,0,4.36,2.18,2.18,0,1,1,0-4.36Z"/><path class="cls-1" d="M100.81,57.12a2.17,2.17,0,1,1,.07-4.33,2.17,2.17,0,1,1-.07,4.33Z"/><path class="cls-1" d="M95.86,97.08a2.17,2.17,0,0,1-2.18,2.19,2.17,2.17,0,1,1,2.18-2.19Z"/><path class="cls-1" d="M81.79,83a2.16,2.16,0,1,1-4.32,0,2.2,2.2,0,0,1,2.15-2.15A2.18,2.18,0,0,1,81.79,83Z"/><path class="cls-1" d="M124,83.14a2.13,2.13,0,0,1-2.23,2.11,2.15,2.15,0,0,1,.07-4.3A2.13,2.13,0,0,1,124,83.14Z"/><path class="cls-1" d="M107.85,95a2.15,2.15,0,1,1-.14,4.3,2.15,2.15,0,1,1,.14-4.3Z"/><path class="cls-1" d="M121.94,66.89a2.14,2.14,0,1,1-2.16,2.17A2.14,2.14,0,0,1,121.94,66.89Z"/><path class="cls-1" d="M81.86,68.91a2.16,2.16,0,1,1-2.16-2.13A2.18,2.18,0,0,1,81.86,68.91Z"/><path class="cls-1" d="M107.86,52.81A2.14,2.14,0,1,1,105.71,55,2.14,2.14,0,0,1,107.86,52.81Z"/><path class="cls-1" d="M93.71,57a2.16,2.16,0,1,1,2.22-2A2.17,2.17,0,0,1,93.71,57Z"/><path class="cls-1" d="M99.32,100.6a2.08,2.08,0,0,1-2.12,2.13,2.11,2.11,0,1,1,0-4.22A2.09,2.09,0,0,1,99.32,100.6Z"/><path class="cls-1" d="M83.24,91.47a2.11,2.11,0,0,1-.19,4.21,2.11,2.11,0,1,1,.19-4.21Z"/><path class="cls-1" d="M76.13,81.61a2.11,2.11,0,1,1,0-4.21,2.11,2.11,0,0,1,0,4.21Z"/><path class="cls-1" d="M76.2,74.57a2.11,2.11,0,0,1,0-4.21,2.11,2.11,0,1,1,0,4.21Z"/><path class="cls-1" d="M121.89,92.24a2.1,2.1,0,1,1,0-4.2,2.1,2.1,0,0,1,0,4.2Z"/><path class="cls-1" d="M83.19,60.49a2.1,2.1,0,0,1,0-4.2,2.1,2.1,0,1,1,0,4.2Z"/><path class="cls-1" d="M114.81,95.07a2.1,2.1,0,1,1,0,4.2,2.1,2.1,0,0,1,0-4.2Z"/><path class="cls-1" d="M120.43,93.67a2.09,2.09,0,0,1-2.06,2.1,2.1,2.1,0,1,1,0-4.2A2.06,2.06,0,0,1,120.43,93.67Z"/><path class="cls-1" d="M125.35,77.49a2.1,2.1,0,0,1,0,4.2,2.1,2.1,0,1,1,0-4.2Z"/><path class="cls-1" d="M104.28,98.6a2.07,2.07,0,0,1,2.07,2.08,2.09,2.09,0,0,1-2.12,2.12,2.13,2.13,0,0,1-2.09-2.09A2.11,2.11,0,0,1,104.28,98.6Z"/><path class="cls-1" d="M123.36,72.51a2.07,2.07,0,0,1,2.11-2.06,2.1,2.1,0,1,1-.07,4.19A2.08,2.08,0,0,1,123.36,72.51Z"/><path class="cls-1" d="M124,62a2.09,2.09,0,0,1-2.07,2.09,2.1,2.1,0,1,1,0-4.19A2.1,2.1,0,0,1,124,62Z"/><path class="cls-1" d="M117,54.92A2.09,2.09,0,0,1,114.93,57a2.1,2.1,0,1,1-.06-4.19A2.1,2.1,0,0,1,117,54.92Z"/><path class="cls-1" d="M79.65,92.15A2.09,2.09,0,0,1,79.57,88a2.09,2.09,0,1,1,.07,4.17Z"/><path class="cls-1" d="M86.69,95a2.09,2.09,0,1,1-.09,4.17A2.09,2.09,0,0,1,86.69,95Z"/><path class="cls-1" d="M102.25,51.36a2.06,2.06,0,0,1,2.14-2,2.09,2.09,0,1,1-.14,4.17A2.07,2.07,0,0,1,102.25,51.36Z"/><path class="cls-1" d="M97.33,53.52a2.09,2.09,0,0,1-.09-4.17,2.09,2.09,0,1,1,.09,4.17Z"/><path class="cls-1" d="M118.41,60.56a2.09,2.09,0,0,1,0-4.17,2.09,2.09,0,1,1,0,4.17Z"/><path class="cls-1" d="M79.7,59.84a2.08,2.08,0,1,1,0,4.16,2.08,2.08,0,1,1,0-4.16Z"/><path class="cls-1" d="M88.83,54.87A2.06,2.06,0,0,1,86.74,57a2.08,2.08,0,1,1,0-4.15A2.05,2.05,0,0,1,88.83,54.87Z"/><path class="cls-1" d="M92.25,100.65a2.06,2.06,0,1,1-2.06-2.11A2.09,2.09,0,0,1,92.25,100.65Z"/><path class="cls-1" d="M111.32,102.75a2.05,2.05,0,1,1,2.05-2A2,2,0,0,1,111.32,102.75Z"/><path class="cls-1" d="M127.44,86.64a2,2,0,0,1-2.11,2,2,2,0,1,1,.11-4.1A2.05,2.05,0,0,1,127.44,86.64Z"/><path class="cls-1" d="M74.13,65.46a2.09,2.09,0,0,1,2.07-2.1,2.07,2.07,0,0,1,0,4.14A2.09,2.09,0,0,1,74.13,65.46Z"/><path class="cls-1" d="M127.5,65.51a2,2,0,0,1-2,2,2,2,0,1,1,2-2Z"/><path class="cls-1" d="M78.17,86.51a2.09,2.09,0,0,1-2.07,2.1,2.07,2.07,0,0,1,0-4.14A2.09,2.09,0,0,1,78.17,86.51Z"/><path class="cls-1" d="M113.42,51.42a2,2,0,0,1-2,2.06,2,2,0,1,1,0-4.09A2,2,0,0,1,113.42,51.42Z"/><path class="cls-1" d="M92.3,51.33a2.05,2.05,0,0,1-2,2.08,2.06,2.06,0,1,1,0-4.12A2,2,0,0,1,92.3,51.33Z"/><path class="cls-1" d="M100.72,102.1a2,2,0,0,1,0,4.07,2,2,0,1,1,0-4.07Z"/><path class="cls-1" d="M72.68,78a2,2,0,0,1,0-4.06,2,2,0,1,1,0,4.06Z"/><path class="cls-1" d="M128.87,74a2,2,0,0,1,0,4.05,2.06,2.06,0,0,1-2.06-2A2,2,0,0,1,128.87,74Z"/><path class="cls-1" d="M100.83,49.93a2,2,0,1,1,0-4,2,2,0,1,1,0,4Z"/><path class="cls-1" d="M93.69,106.16a2,2,0,1,1,0-4,2,2,0,0,1,0,4Z"/><path class="cls-1" d="M107.78,102.22a2,2,0,1,1,0,4,2,2,0,1,1,0-4Z"/><path class="cls-1" d="M128.88,81.1a2,2,0,1,1,0,4,2,2,0,1,1,0-4Z"/><path class="cls-1" d="M72.66,71a2,2,0,0,1,0-4,2,2,0,0,1,0,4Z"/><path class="cls-1" d="M93.82,49.85a2,2,0,0,1-.07-4,2,2,0,0,1,.07,4Z"/><path class="cls-1" d="M72.59,85a2,2,0,0,1,0-4,2,2,0,0,1,0,4Z"/><path class="cls-1" d="M129,71a2,2,0,1,1-.08-4,2,2,0,1,1,.08,4Z"/><path class="cls-1" d="M77.64,97.08a2,2,0,1,1,2,2A2,2,0,0,1,77.64,97.08Z"/><path class="cls-1" d="M107.87,49.91a2,2,0,1,1,2-2A2,2,0,0,1,107.87,49.91Z"/><path class="cls-1" d="M123.85,97.18a2,2,0,1,1-2-2A2,2,0,0,1,123.85,97.18Z"/><path class="cls-1" d="M120.31,100.73a2,2,0,1,1-1.94-2A2,2,0,0,1,120.31,100.73Z"/><path class="cls-1" d="M127.35,93.69a2,2,0,1,1-1.94-2A2,2,0,0,1,127.35,93.69Z"/><path class="cls-1" d="M81.68,54.89a2,2,0,0,1-2,2,2,2,0,0,1,0-4A2,2,0,0,1,81.68,54.89Z"/><path class="cls-1" d="M123.91,54.94a2,2,0,0,1-2,2,2,2,0,1,1,2-2Z"/><path class="cls-1" d="M76.15,95.55a2,2,0,1,1,1.93-2A1.94,1.94,0,0,1,76.15,95.55Z"/><path class="cls-1" d="M83.14,102.59a2,2,0,1,1,2-2A1.94,1.94,0,0,1,83.14,102.59Z"/><path class="cls-1" d="M123.49,58.49a2,2,0,0,1,2-2,2,2,0,0,1,0,4A2,2,0,0,1,123.49,58.49Z"/><path class="cls-1" d="M116.45,51.4a2,2,0,0,1,2-1.95,2,2,0,0,1-.06,4A2,2,0,0,1,116.45,51.4Z"/><path class="cls-1" d="M83.24,49.39a2,2,0,1,1-.06,3.93,2,2,0,0,1,.06-3.93Z"/><path class="cls-1" d="M76.22,56.42a2,2,0,1,1-.11,3.93,2,2,0,0,1,.11-3.93Z"/><path class="cls-1" d="M128.85,92.09a2,2,0,0,1,.08-3.91,2,2,0,1,1-.08,3.91Z"/><path class="cls-1" d="M114.85,102.26a2,2,0,1,1-.05,3.91,2,2,0,0,1,.05-3.91Z"/><path class="cls-1" d="M86.69,102.18a2,2,0,0,1,1.94,1.94,2,2,0,0,1-2,2,2,2,0,0,1-1.92-2A1.93,1.93,0,0,1,86.69,102.18Z"/><path class="cls-1" d="M97.25,105.7a2,2,0,0,1,0,3.9,2,2,0,1,1,0-3.9Z"/><path class="cls-1" d="M116.84,47.91a1.93,1.93,0,0,1-1.91,2,2,2,0,1,1,0-3.9A1.94,1.94,0,0,1,116.84,47.91Z"/><path class="cls-1" d="M130.91,62a1.93,1.93,0,0,1-1.9,2,2,2,0,1,1,0-3.9A1.94,1.94,0,0,1,130.91,62Z"/><path class="cls-1" d="M71,79.47a1.93,1.93,0,0,1-1.88,2,1.95,1.95,0,1,1-.07-3.9A1.94,1.94,0,0,1,71,79.47Z"/><path class="cls-1" d="M69.19,74.41a1.95,1.95,0,0,1-.11-3.9,1.95,1.95,0,1,1,.11,3.9Z"/><path class="cls-1" d="M72.58,88.12a2,2,0,0,1,2,1.91,2,2,0,0,1-2,2,1.93,1.93,0,0,1-1.91-2A1.91,1.91,0,0,1,72.58,88.12Z"/><path class="cls-1" d="M104.23,105.79a1.92,1.92,0,0,1,2,1.89,1.94,1.94,0,0,1-1.95,2,2,2,0,0,1-2-1.94A2,2,0,0,1,104.23,105.79Z"/><path class="cls-1" d="M72.7,60a1.91,1.91,0,0,1,1.91,2,1.93,1.93,0,0,1-1.93,1.94,2,2,0,0,1-2-2A2,2,0,0,1,72.7,60Z"/><path class="cls-1" d="M132.45,77.65a1.93,1.93,0,0,1,0,3.87,1.94,1.94,0,1,1,0-3.87Z"/><path class="cls-1" d="M88.68,47.83a1.91,1.91,0,0,1-1.91,1.94,1.93,1.93,0,1,1,0-3.87A1.9,1.9,0,0,1,88.68,47.83Z"/><path class="cls-1" d="M132.52,70.61a1.94,1.94,0,1,1-.1,3.87,1.94,1.94,0,0,1,.1-3.87Z"/><path class="cls-1" d="M97.33,46.32a1.93,1.93,0,1,1-.06-3.85,1.93,1.93,0,1,1,.06,3.85Z"/><path class="cls-1" d="M104.34,46.32a1.92,1.92,0,1,1,0-3.85,1.92,1.92,0,1,1,0,3.85Z"/><path class="cls-1" d="M88.28,107.66a1.91,1.91,0,1,1,1.87,1.92A1.93,1.93,0,0,1,88.28,107.66Z"/><path class="cls-1" d="M132.42,84.72a1.9,1.9,0,1,1,0,3.8,1.9,1.9,0,1,1,0-3.8Z"/><path class="cls-1" d="M113.21,107.84a1.91,1.91,0,1,1-1.76-2A1.9,1.9,0,0,1,113.21,107.84Z"/><path class="cls-1" d="M71,86.55A1.91,1.91,0,1,1,69,84.62,1.93,1.93,0,0,1,71,86.55Z"/><path class="cls-1" d="M71,65.43a1.91,1.91,0,0,1-1.86,1.91,1.91,1.91,0,1,1,0-3.83A1.91,1.91,0,0,1,71,65.43Z"/><path class="cls-1" d="M92.15,44.28a1.91,1.91,0,0,1-1.84,1.95,1.91,1.91,0,1,1-.07-3.82A1.91,1.91,0,0,1,92.15,44.28Z"/><path class="cls-1" d="M132.46,63.61a1.89,1.89,0,1,1-1.88,1.9A1.9,1.9,0,0,1,132.46,63.61Z"/><path class="cls-1" d="M113.27,44.37a1.86,1.86,0,0,1-1.85,1.92,1.89,1.89,0,1,1,0-3.79A1.87,1.87,0,0,1,113.27,44.37Z"/><path class="cls-1" d="M74.24,100.65a1.84,1.84,0,0,1,1.84-1.9A1.89,1.89,0,0,1,78,100.59a1.91,1.91,0,0,1-1.86,1.91A1.87,1.87,0,0,1,74.24,100.65Z"/><path class="cls-1" d="M125.41,98.82a1.88,1.88,0,1,1-.07,3.75,1.88,1.88,0,0,1,.07-3.75Z"/><path class="cls-1" d="M128.86,95.32a1.83,1.83,0,0,1,1.9,1.84A1.85,1.85,0,0,1,128.89,99,1.9,1.9,0,0,1,127,97.23,1.87,1.87,0,0,1,128.86,95.32Z"/><path class="cls-1" d="M81.49,104.18A1.85,1.85,0,0,1,79.57,106a1.87,1.87,0,0,1,.08-3.75A1.86,1.86,0,0,1,81.49,104.18Z"/><path class="cls-1" d="M127.31,51.41a1.85,1.85,0,0,1-1.86,1.89,1.87,1.87,0,0,1,0-3.75A1.86,1.86,0,0,1,127.31,51.41Z"/><path class="cls-1" d="M102.6,111.21a1.85,1.85,0,0,1-1.92,1.83,1.87,1.87,0,0,1,.08-3.75A1.86,1.86,0,0,1,102.6,111.21Z"/><path class="cls-1" d="M123.71,104.22a1.85,1.85,0,0,1-1.88,1.87,1.9,1.9,0,0,1-1.86-1.84,1.88,1.88,0,0,1,1.87-1.89A1.83,1.83,0,0,1,123.71,104.22Z"/><path class="cls-1" d="M74.44,97.12A1.85,1.85,0,0,1,72.61,99a1.87,1.87,0,1,1,0-3.74A1.86,1.86,0,0,1,74.44,97.12Z"/><path class="cls-1" d="M65.65,77.85a1.87,1.87,0,0,1,0-3.74,1.87,1.87,0,1,1,0,3.74Z"/><path class="cls-1" d="M129,56.81a1.85,1.85,0,1,1,0-3.71,1.85,1.85,0,1,1,0,3.71Z"/><path class="cls-1" d="M70.82,54.86A1.87,1.87,0,0,1,72.65,53a1.86,1.86,0,1,1,0,3.72A1.85,1.85,0,0,1,70.82,54.86Z"/><path class="cls-1" d="M78,51.36a1.83,1.83,0,0,1-1.82,1.85,1.85,1.85,0,1,1-.07-3.71A1.82,1.82,0,0,1,78,51.36Z"/><path class="cls-1" d="M79.69,46a1.86,1.86,0,1,1,0,3.72,1.86,1.86,0,0,1,0-3.72Z"/><path class="cls-1" d="M95.55,111.19A1.86,1.86,0,0,1,93.72,113a1.86,1.86,0,1,1,1.83-1.84Z"/><path class="cls-1" d="M135.91,77.92a1.85,1.85,0,1,1,0-3.71,1.85,1.85,0,1,1,0,3.71Z"/><path class="cls-1" d="M67.4,83a1.85,1.85,0,1,1-3.69,0,1.85,1.85,0,0,1,3.69,0Z"/><path class="cls-1" d="M63.79,69a1.85,1.85,0,1,1,1.86,1.82A1.87,1.87,0,0,1,63.79,69Z"/><path class="cls-1" d="M116.49,107.71a1.85,1.85,0,1,1,1.8,1.88A1.87,1.87,0,0,1,116.49,107.71Z"/><path class="cls-1" d="M100.86,42.72a1.84,1.84,0,0,1-.12-3.68,1.84,1.84,0,1,1,.12,3.68Z"/><path class="cls-1" d="M122,49.76a1.84,1.84,0,1,1,0-3.68,1.84,1.84,0,1,1,0,3.68Z"/><path class="cls-1" d="M109.63,111.28a1.82,1.82,0,0,1-1.85,1.82,1.84,1.84,0,1,1,0-3.68A1.82,1.82,0,0,1,109.63,111.28Z"/><path class="cls-1" d="M134.33,58.45a1.84,1.84,0,1,1-1.86-1.82A1.86,1.86,0,0,1,134.33,58.45Z"/><path class="cls-1" d="M91.95,40.82a1.84,1.84,0,1,1,1.86,1.83A1.86,1.86,0,0,1,91.95,40.82Z"/><path class="cls-1" d="M134.24,93.78a1.84,1.84,0,1,1-1.72-2A1.85,1.85,0,0,1,134.24,93.78Z"/><path class="cls-1" d="M83.12,109.49a1.83,1.83,0,1,1,.09-3.67,1.83,1.83,0,0,1-.09,3.67Z"/><path class="cls-1" d="M137.77,83.08a1.82,1.82,0,0,1-1.8,1.86,1.83,1.83,0,1,1-.05-3.67A1.81,1.81,0,0,1,137.77,83.08Z"/><path class="cls-1" d="M136,70.86a1.83,1.83,0,1,1,.05-3.67,1.83,1.83,0,0,1-.05,3.67Z"/><path class="cls-1" d="M120.25,44.43a1.86,1.86,0,0,1-1.86,1.81,1.84,1.84,0,0,1,.06-3.68A1.86,1.86,0,0,1,120.25,44.43Z"/><path class="cls-1" d="M107.89,39.05A1.83,1.83,0,1,1,106,40.84,1.82,1.82,0,0,1,107.89,39.05Z"/><path class="cls-1" d="M69.05,95.41a1.83,1.83,0,1,1,1.86-1.8A1.81,1.81,0,0,1,69.05,95.41Z"/><path class="cls-1" d="M85.06,44.28a1.83,1.83,0,1,1-1.88-1.78A1.81,1.81,0,0,1,85.06,44.28Z"/><path class="cls-1" d="M71,58.43a1.83,1.83,0,1,1-1.81-1.86A1.81,1.81,0,0,1,71,58.43Z"/><path class="cls-1" d="M114.84,109.45a1.8,1.8,0,1,1-.05,3.6,1.8,1.8,0,0,1,.05-3.6Z"/><path class="cls-1" d="M86.7,109.38a1.82,1.82,0,0,1,1.78,1.82,1.84,1.84,0,0,1-1.81,1.8,1.8,1.8,0,0,1-1.8-1.86A1.78,1.78,0,0,1,86.7,109.38Z"/><path class="cls-1" d="M137.79,62A1.77,1.77,0,0,1,136,63.78a1.8,1.8,0,1,1,0-3.59A1.78,1.78,0,0,1,137.79,62Z"/><path class="cls-1" d="M135.9,91.93a1.8,1.8,0,0,1,0-3.59,1.8,1.8,0,1,1,0,3.59Z"/><path class="cls-1" d="M65.64,88.28a1.8,1.8,0,0,1,1.72,1.85,1.82,1.82,0,0,1-1.85,1.73A1.78,1.78,0,0,1,63.77,90,1.76,1.76,0,0,1,65.64,88.28Z"/><path class="cls-1" d="M116.67,40.91a1.77,1.77,0,0,1-1.81,1.76,1.79,1.79,0,1,1,.06-3.58A1.78,1.78,0,0,1,116.67,40.91Z"/><path class="cls-1" d="M65.62,60.13a1.76,1.76,0,0,1,1.79,1.76,1.78,1.78,0,0,1-1.74,1.82,1.82,1.82,0,0,1-1.85-1.81A1.8,1.8,0,0,1,65.62,60.13Z"/><path class="cls-1" d="M99,114.73a1.77,1.77,0,0,1-1.83,1.74,1.78,1.78,0,0,1,.08-3.57A1.78,1.78,0,0,1,99,114.73Z"/><path class="cls-1" d="M88.52,40.83a1.77,1.77,0,0,1-1.8,1.75A1.78,1.78,0,1,1,86.77,39,1.75,1.75,0,0,1,88.52,40.83Z"/><path class="cls-1" d="M106,114.81a1.75,1.75,0,0,1-1.82,1.73,1.77,1.77,0,1,1,.07-3.53A1.74,1.74,0,0,1,106,114.81Z"/><path class="cls-1" d="M63.8,79.5A1.78,1.78,0,0,1,62,81.28,1.78,1.78,0,1,1,63.8,79.5Z"/><path class="cls-1" d="M62.14,70.69a1.78,1.78,0,1,1-.08,3.56,1.78,1.78,0,0,1,.08-3.56Z"/><path class="cls-1" d="M139.51,74.3a1.76,1.76,0,1,1,1.79-1.76A1.74,1.74,0,0,1,139.51,74.3Z"/><path class="cls-1" d="M139.45,81.34a1.76,1.76,0,1,1,0-3.51,1.76,1.76,0,0,1,0,3.51Z"/><path class="cls-1" d="M97.33,39.11a1.75,1.75,0,1,1,1.73-1.74A1.74,1.74,0,0,1,97.33,39.11Z"/><path class="cls-1" d="M104.37,39.11a1.75,1.75,0,1,1,1.72-1.74A1.74,1.74,0,0,1,104.37,39.11Z"/><path class="cls-1" d="M130.64,104.24a1.75,1.75,0,1,1-1.7-1.78A1.76,1.76,0,0,1,130.64,104.24Z"/><path class="cls-1" d="M74.33,104.1a1.72,1.72,0,0,1-1.69,1.78,1.74,1.74,0,1,1,1.69-1.78Z"/><path class="cls-1" d="M74.38,107.66a1.74,1.74,0,0,1,1.72-1.75,1.75,1.75,0,1,1,0,3.5A1.75,1.75,0,0,1,74.38,107.66Z"/><path class="cls-1" d="M129,46.17a1.75,1.75,0,1,1-.1,3.5,1.75,1.75,0,0,1,.1-3.5Z"/><path class="cls-1" d="M90.15,112.94a1.75,1.75,0,1,1,0,3.5,1.75,1.75,0,0,1,0-3.5Z"/><path class="cls-1" d="M67.34,100.58a1.74,1.74,0,0,1,1.75-1.71,1.75,1.75,0,1,1-.08,3.5A1.75,1.75,0,0,1,67.34,100.58Z"/><path class="cls-1" d="M72.64,49.57a1.73,1.73,0,0,1,0-3.47,1.73,1.73,0,1,1,0,3.47Z"/><path class="cls-1" d="M132.39,102.43a1.73,1.73,0,0,1,0-3.47,1.73,1.73,0,1,1,0,3.47Z"/><path class="cls-1" d="M111.33,116.5a1.73,1.73,0,1,1,0-3.47,1.73,1.73,0,0,1,0,3.47Z"/><path class="cls-1" d="M125.4,109.47a1.73,1.73,0,1,1,0-3.47,1.73,1.73,0,0,1,0,3.47Z"/><path class="cls-1" d="M139.44,88.35a1.73,1.73,0,0,1,0-3.47,1.73,1.73,0,1,1,0,3.47Z"/><path class="cls-1" d="M63.83,65.46a1.73,1.73,0,0,1-1.75,1.71,1.74,1.74,0,0,1,.06-3.48A1.71,1.71,0,0,1,63.83,65.46Z"/><path class="cls-1" d="M70.87,51.35a1.73,1.73,0,0,1-1.71,1.75,1.74,1.74,0,0,1,0-3.48A1.72,1.72,0,0,1,70.87,51.35Z"/><path class="cls-1" d="M60.31,86.54A1.72,1.72,0,0,1,62,84.81a1.74,1.74,0,0,1,0,3.48A1.73,1.73,0,0,1,60.31,86.54Z"/><path class="cls-1" d="M77.91,44.28a1.73,1.73,0,0,1-1.69,1.78,1.74,1.74,0,0,1-.07-3.48A1.71,1.71,0,0,1,77.91,44.28Z"/><path class="cls-1" d="M134.21,51.46a1.7,1.7,0,0,1-1.75,1.7,1.73,1.73,0,1,1,0-3.45A1.71,1.71,0,0,1,134.21,51.46Z"/><path class="cls-1" d="M141.25,65.5a1.7,1.7,0,0,1-1.72,1.73,1.73,1.73,0,1,1,0-3.45A1.71,1.71,0,0,1,141.25,65.5Z"/><path class="cls-1" d="M113.1,37.35a1.7,1.7,0,0,1-1.72,1.73,1.73,1.73,0,1,1,0-3.46A1.71,1.71,0,0,1,113.1,37.35Z"/><path class="cls-1" d="M127.17,44.42a1.7,1.7,0,0,1-1.75,1.7,1.73,1.73,0,1,1,0-3.45A1.71,1.71,0,0,1,127.17,44.42Z"/><path class="cls-1" d="M92,37.28A1.71,1.71,0,0,1,90.24,39a1.76,1.76,0,0,1-1.71-1.77,1.74,1.74,0,0,1,1.72-1.68A1.69,1.69,0,0,1,92,37.28Z"/><path class="cls-1" d="M81.33,111.17a1.7,1.7,0,0,1-1.73,1.72,1.72,1.72,0,1,1,.06-3.43A1.71,1.71,0,0,1,81.33,111.17Z"/><path class="cls-1" d="M67.26,97.16a1.7,1.7,0,0,1-1.72,1.66,1.72,1.72,0,1,1,0-3.43A1.71,1.71,0,0,1,67.26,97.16Z"/><path class="cls-1" d="M137.64,97.18A1.7,1.7,0,0,1,136,98.9a1.75,1.75,0,0,1-1.76-1.72A1.73,1.73,0,0,1,136,95.47,1.68,1.68,0,0,1,137.64,97.18Z"/><path class="cls-1" d="M78,40.84a1.71,1.71,0,0,1,1.7-1.75,1.75,1.75,0,0,1,1.72,1.68,1.74,1.74,0,0,1-1.72,1.75A1.7,1.7,0,0,1,78,40.84Z"/><path class="cls-1" d="M63.93,54.91a1.71,1.71,0,0,1,1.71-1.75,1.71,1.71,0,1,1,0,3.42A1.7,1.7,0,0,1,63.93,54.91Z"/><path class="cls-1" d="M121.89,109.55a1.71,1.71,0,0,1-.08,3.42,1.75,1.75,0,0,1-1.69-1.71A1.73,1.73,0,0,1,121.89,109.55Z"/><path class="cls-1" d="M120.24,40.86A1.67,1.67,0,0,1,122,39.18a1.7,1.7,0,1,1-.11,3.39A1.68,1.68,0,0,1,120.24,40.86Z"/><path class="cls-1" d="M134.31,55A1.67,1.67,0,0,1,136,53.26a1.7,1.7,0,1,1,0,3.4A1.68,1.68,0,0,1,134.31,55Z"/><path class="cls-1" d="M102.43,118.26a1.69,1.69,0,1,1-3.38-.08,1.72,1.72,0,0,1,1.73-1.66A1.71,1.71,0,0,1,102.43,118.26Z"/><path class="cls-1" d="M139.44,92a1.69,1.69,0,1,1-1.67,1.7A1.7,1.7,0,0,1,139.44,92Z"/><path class="cls-1" d="M60.27,76a1.68,1.68,0,1,1-1.66-1.7A1.7,1.7,0,0,1,60.27,76Z"/><path class="cls-1" d="M120,114.74a1.68,1.68,0,1,1-1.71-1.66A1.7,1.7,0,0,1,120,114.74Z"/><path class="cls-1" d="M143,77.73A1.67,1.67,0,1,1,144.65,76,1.65,1.65,0,0,1,143,77.73Z"/><path class="cls-1" d="M83.17,116.36a1.67,1.67,0,1,1,1.65-1.71A1.66,1.66,0,0,1,83.17,116.36Z"/><path class="cls-1" d="M62.09,60.05a1.66,1.66,0,0,1,0-3.32,1.66,1.66,0,1,1,0,3.32Z"/><path class="cls-1" d="M137.87,58.5a1.68,1.68,0,0,1,1.65-1.71,1.68,1.68,0,1,1-1.65,1.71Z"/><path class="cls-1" d="M107.81,119.95a1.66,1.66,0,0,1-.1-3.32,1.66,1.66,0,1,1,.1,3.32Z"/><path class="cls-1" d="M62,91.92a1.66,1.66,0,0,1,.09,3.32A1.66,1.66,0,1,1,62,91.92Z"/><path class="cls-1" d="M92,118.21a1.68,1.68,0,0,1,1.68-1.68,1.68,1.68,0,0,1,0,3.36A1.68,1.68,0,0,1,92,118.21Z"/><path class="cls-1" d="M100.84,35.5a1.66,1.66,0,1,1,0-3.32,1.66,1.66,0,0,1,0,3.32Z"/><path class="cls-1" d="M143,81.45a1.65,1.65,0,1,1,0,3.31,1.65,1.65,0,0,1,0-3.31Z"/><path class="cls-1" d="M144.69,69a1.62,1.62,0,0,1-1.58,1.68,1.65,1.65,0,1,1-.06-3.3A1.63,1.63,0,0,1,144.69,69Z"/><path class="cls-1" d="M83.19,38.93a1.65,1.65,0,0,1,.07-3.31,1.65,1.65,0,1,1-.07,3.31Z"/><path class="cls-1" d="M109.51,33.81a1.62,1.62,0,0,1-1.58,1.68,1.65,1.65,0,1,1-.06-3.3A1.63,1.63,0,0,1,109.51,33.81Z"/><path class="cls-1" d="M116.77,37.32a1.66,1.66,0,0,1,1.65-1.63,1.67,1.67,0,0,1,0,3.34A1.66,1.66,0,0,1,116.77,37.32Z"/><path class="cls-1" d="M60.24,69a1.67,1.67,0,0,1-1.63,1.65,1.67,1.67,0,0,1,0-3.34A1.66,1.66,0,0,1,60.24,69Z"/><path class="cls-1" d="M56.87,83a1.65,1.65,0,0,1,1.61-1.66,1.67,1.67,0,1,1,0,3.34A1.66,1.66,0,0,1,56.87,83Z"/><path class="cls-1" d="M95.42,33.75a1.65,1.65,0,0,1-1.61,1.67,1.66,1.66,0,1,1,0-3.31A1.63,1.63,0,0,1,95.42,33.75Z"/><path class="cls-1" d="M85.05,118.25a1.59,1.59,0,0,1,1.6-1.65,1.61,1.61,0,1,1,.08,3.22A1.6,1.6,0,0,1,85.05,118.25Z"/><path class="cls-1" d="M143,88.51a1.63,1.63,0,1,1,0,3.26,1.63,1.63,0,0,1,0-3.26Z"/><path class="cls-1" d="M113.2,118.26a1.63,1.63,0,0,1,1.67-1.6,1.67,1.67,0,0,1,1.58,1.63,1.65,1.65,0,0,1-1.65,1.63A1.62,1.62,0,0,1,113.2,118.26Z"/><path class="cls-1" d="M144.66,62a1.62,1.62,0,0,1-1.58,1.61A1.64,1.64,0,0,1,141.43,62a1.66,1.66,0,0,1,1.6-1.61A1.63,1.63,0,0,1,144.66,62Z"/><path class="cls-1" d="M69.1,109.28a1.64,1.64,0,0,1-1.65-1.63A1.66,1.66,0,0,1,69,106a1.62,1.62,0,0,1,0,3.25Z"/><path class="cls-1" d="M114.93,35.45a1.62,1.62,0,1,1,1.57-1.69A1.62,1.62,0,0,1,114.93,35.45Z"/><path class="cls-1" d="M137.53,104.29A1.6,1.6,0,1,1,136,102.6,1.62,1.62,0,0,1,137.53,104.29Z"/><path class="cls-1" d="M130.5,111.24a1.6,1.6,0,1,1-1.6-1.61A1.63,1.63,0,0,1,130.5,111.24Z"/><path class="cls-1" d="M58.55,91.66a1.6,1.6,0,1,1-.07-3.2,1.6,1.6,0,1,1,.07,3.2Z"/><path class="cls-1" d="M58.61,60.31a1.6,1.6,0,1,1,0,3.2,1.6,1.6,0,1,1,0-3.2Z"/><path class="cls-1" d="M70.76,44.31a1.6,1.6,0,1,1-1.59-1.61A1.63,1.63,0,0,1,70.76,44.31Z"/><path class="cls-1" d="M132.4,109.34a1.6,1.6,0,1,1,0-3.2,1.6,1.6,0,1,1,0,3.2Z"/><path class="cls-1" d="M136,46.31a1.6,1.6,0,1,1,0,3.21,1.61,1.61,0,0,1,0-3.21Z"/><path class="cls-1" d="M130.57,40.84A1.62,1.62,0,0,1,129,42.48a1.6,1.6,0,1,1-.07-3.21A1.62,1.62,0,0,1,130.57,40.84Z"/><path class="cls-1" d="M132.49,46a1.59,1.59,0,1,1,1.6-1.57A1.58,1.58,0,0,1,132.49,46Z"/><path class="cls-1" d="M65.51,102.55A1.59,1.59,0,1,1,64,104.16,1.59,1.59,0,0,1,65.51,102.55Z"/><path class="cls-1" d="M86.71,32.17a1.59,1.59,0,1,1-1.57,1.61A1.58,1.58,0,0,1,86.71,32.17Z"/><path class="cls-1" d="M72.55,112.77a1.59,1.59,0,1,1,1.64-1.53A1.58,1.58,0,0,1,72.55,112.77Z"/><path class="cls-1" d="M72.66,42.38a1.58,1.58,0,0,1,0-3.17,1.58,1.58,0,1,1,0,3.17Z"/><path class="cls-1" d="M95.65,121.74a1.58,1.58,0,0,1,1.57-1.6,1.59,1.59,0,0,1,0,3.19A1.59,1.59,0,0,1,95.65,121.74Z"/><path class="cls-1" d="M65.65,49.42a1.58,1.58,0,1,1,0-3.17,1.58,1.58,0,0,1,0,3.17Z"/><path class="cls-1" d="M74.54,114.67a1.58,1.58,0,0,1,1.6-1.57,1.59,1.59,0,0,1,0,3.19A1.59,1.59,0,0,1,74.54,114.67Z"/><path class="cls-1" d="M104.23,123.39a1.58,1.58,0,0,1,.07-3.15,1.58,1.58,0,1,1-.07,3.15Z"/><path class="cls-1" d="M139.48,102.27a1.58,1.58,0,0,1-.06-3.15,1.58,1.58,0,1,1,.06,3.15Z"/><path class="cls-1" d="M125.36,116.35a1.58,1.58,0,0,1,0-3.15,1.58,1.58,0,1,1,0,3.15Z"/><path class="cls-1" d="M62.07,99a1.58,1.58,0,1,1-.1,3.16,1.58,1.58,0,0,1,.1-3.16Z"/><path class="cls-1" d="M146.48,81.15a1.57,1.57,0,0,1,0-3.14,1.57,1.57,0,1,1,0,3.14Z"/><path class="cls-1" d="M148.13,72.57a1.54,1.54,0,0,1-1.6,1.55,1.57,1.57,0,0,1,0-3.14A1.55,1.55,0,0,1,148.13,72.57Z"/><path class="cls-1" d="M141.09,51.46A1.54,1.54,0,0,1,139.48,53a1.57,1.57,0,0,1,0-3.14A1.55,1.55,0,0,1,141.09,51.46Z"/><path class="cls-1" d="M63.68,51.36a1.57,1.57,0,0,1-1.59,1.58,1.61,1.61,0,0,1-1.56-1.62,1.59,1.59,0,0,1,1.56-1.53A1.56,1.56,0,0,1,63.68,51.36Z"/><path class="cls-1" d="M56.64,72.43a1.57,1.57,0,0,1-1.54,1.62,1.61,1.61,0,0,1-1.6-1.58A1.59,1.59,0,0,1,55,70.9,1.56,1.56,0,0,1,56.64,72.43Z"/><path class="cls-1" d="M56.64,79.49a1.57,1.57,0,0,1-1.56,1.6,1.61,1.61,0,0,1-1.58-1.6A1.59,1.59,0,0,1,55,77.93,1.56,1.56,0,0,1,56.64,79.49Z"/><path class="cls-1" d="M98.85,30.32a1.54,1.54,0,0,1-1.52,1.56,1.57,1.57,0,1,1,0-3.13A1.54,1.54,0,0,1,98.85,30.32Z"/><path class="cls-1" d="M127,37.36a1.54,1.54,0,0,1-1.52,1.56,1.57,1.57,0,1,1,0-3.13A1.54,1.54,0,0,1,127,37.36Z"/><path class="cls-1" d="M105.89,30.34a1.53,1.53,0,0,1-1.53,1.54,1.57,1.57,0,1,1,0-3.13A1.54,1.54,0,0,1,105.89,30.34Z"/><path class="cls-1" d="M109.75,121.78a1.55,1.55,0,0,1,1.54-1.53,1.56,1.56,0,1,1,0,3.12A1.54,1.54,0,0,1,109.75,121.78Z"/><path class="cls-1" d="M77.74,37.31a1.56,1.56,0,0,1-1.55,1.54,1.61,1.61,0,0,1-1.58-1.6,1.58,1.58,0,0,1,1.57-1.53A1.54,1.54,0,0,1,77.74,37.31Z"/><path class="cls-1" d="M146.46,85.07a1.55,1.55,0,0,1,.1,3.1,1.55,1.55,0,1,1-.1-3.1Z"/><path class="cls-1" d="M148.1,65.53a1.54,1.54,0,0,1-1.54,1.53,1.55,1.55,0,1,1,0-3.1A1.55,1.55,0,0,1,148.1,65.53Z"/><path class="cls-1" d="M81.17,118.18a1.54,1.54,0,0,1-1.48,1.59,1.55,1.55,0,1,1-.07-3.1A1.55,1.55,0,0,1,81.17,118.18Z"/><path class="cls-1" d="M88.64,121.68a1.52,1.52,0,0,1,1.58-1.49,1.55,1.55,0,1,1-.1,3.09A1.53,1.53,0,0,1,88.64,121.68Z"/><path class="cls-1" d="M58.51,98.64A1.55,1.55,0,1,1,60,97.11,1.54,1.54,0,0,1,58.51,98.64Z"/><path class="cls-1" d="M144.51,97.16a1.52,1.52,0,0,1-1.5,1.56,1.53,1.53,0,1,1,0-3.07A1.51,1.51,0,0,1,144.51,97.16Z"/><path class="cls-1" d="M112.91,30.31a1.54,1.54,0,0,1-1.52,1.55,1.54,1.54,0,1,1,1.52-1.55Z"/><path class="cls-1" d="M58.62,53.33a1.54,1.54,0,0,1,0,3.09,1.54,1.54,0,0,1,0-3.09Z"/><path class="cls-1" d="M121.84,116.76a1.53,1.53,0,1,1,0,3.07,1.53,1.53,0,1,1,0-3.07Z"/><path class="cls-1" d="M55,85a1.53,1.53,0,1,1,0,3.07A1.53,1.53,0,0,1,55,85Z"/><path class="cls-1" d="M55.09,63.9a1.53,1.53,0,0,1,0,3.07,1.54,1.54,0,1,1,0-3.07Z"/><path class="cls-1" d="M143.07,53.43a1.52,1.52,0,1,1-.05,3,1.52,1.52,0,1,1,.05-3Z"/><path class="cls-1" d="M90.26,31.76a1.52,1.52,0,1,1,0-3,1.52,1.52,0,1,1,0,3Z"/><path class="cls-1" d="M121.93,35.35a1.51,1.51,0,1,1,1.53-1.53A1.5,1.5,0,0,1,121.93,35.35Z"/><path class="cls-1" d="M79.74,35.3a1.54,1.54,0,1,1,1.5-1.59A1.54,1.54,0,0,1,79.74,35.3Z"/><path class="cls-1" d="M118.35,123.3a1.52,1.52,0,0,1-1.51-1.48,1.5,1.5,0,0,1,1.48-1.49,1.45,1.45,0,0,1,1.49,1.47A1.47,1.47,0,0,1,118.35,123.3Z"/><path class="cls-1" d="M84.62,121.77a1.46,1.46,0,0,1-1.51,1.45,1.49,1.49,0,1,1,.07-3A1.47,1.47,0,0,1,84.62,121.77Z"/><path class="cls-1" d="M55,92.1a1.48,1.48,0,0,1,0,3,1.48,1.48,0,1,1,0-3Z"/><path class="cls-1" d="M56.56,58.38a1.5,1.5,0,0,1-1.49,1.49,1.48,1.48,0,0,1,0-3A1.52,1.52,0,0,1,56.56,58.38Z"/><path class="cls-1" d="M150,74.58a1.52,1.52,0,0,1,1.48,1.51A1.5,1.5,0,0,1,150,77.54a1.48,1.48,0,0,1,.05-3Z"/><path class="cls-1" d="M148,93.66a1.47,1.47,0,0,1-1.47,1.49,1.52,1.52,0,0,1-1.5-1.48,1.5,1.5,0,0,1,1.49-1.48A1.45,1.45,0,0,1,148,93.66Z"/><path class="cls-1" d="M102.24,125.27a1.52,1.52,0,0,1-1.51,1.47,1.47,1.47,0,0,1-1.46-1.5,1.45,1.45,0,0,1,1.49-1.46A1.5,1.5,0,0,1,102.24,125.27Z"/><path class="cls-1" d="M81.76,30.25a1.47,1.47,0,0,1,1.48-1.49,1.48,1.48,0,0,1,0,3A1.46,1.46,0,0,1,81.76,30.25Z"/><path class="cls-1" d="M145.1,58.48A1.44,1.44,0,0,1,146.57,57a1.48,1.48,0,0,1,1.48,1.49,1.5,1.5,0,0,1-1.46,1.45A1.46,1.46,0,0,1,145.1,58.48Z"/><path class="cls-1" d="M150,81.63a1.47,1.47,0,1,1,0,2.94,1.47,1.47,0,0,1,0-2.94Z"/><path class="cls-1" d="M137.4,111.28a1.5,1.5,0,0,1-1.54,1.44,1.47,1.47,0,0,1,.13-2.94A1.51,1.51,0,0,1,137.4,111.28Z"/><path class="cls-1" d="M107.78,123.86a1.47,1.47,0,1,1,0,2.94,1.47,1.47,0,0,1,0-2.94Z"/><path class="cls-1" d="M100.81,28.27a1.47,1.47,0,1,1,0-2.94,1.47,1.47,0,0,1,0,2.94Z"/><path class="cls-1" d="M119.9,30.35a1.49,1.49,0,0,1-1.53,1.44,1.46,1.46,0,0,1,0-2.93A1.48,1.48,0,0,1,119.9,30.35Z"/><path class="cls-1" d="M51.55,77.46a1.46,1.46,0,1,1,0-2.93,1.46,1.46,0,0,1,0,2.93Z"/><path class="cls-1" d="M70.52,114.66a1.46,1.46,0,0,1-1.4,1.5,1.46,1.46,0,1,1-.07-2.93A1.47,1.47,0,0,1,70.52,114.66Z"/><path class="cls-1" d="M150.06,67.56A1.46,1.46,0,1,1,148.62,69,1.5,1.5,0,0,1,150.06,67.56Z"/><path class="cls-1" d="M136,42.34a1.46,1.46,0,0,1,0-2.92,1.46,1.46,0,1,1,0,2.92Z"/><path class="cls-1" d="M63.48,107.67A1.46,1.46,0,0,1,62,109.12a1.46,1.46,0,1,1,1.44-1.45Z"/><path class="cls-1" d="M109.31,26.81a1.46,1.46,0,0,1-1.44,1.45,1.46,1.46,0,1,1,1.44-1.45Z"/><path class="cls-1" d="M65.53,112.63a1.45,1.45,0,1,1,0-2.9,1.45,1.45,0,1,1,0,2.9Z"/><path class="cls-1" d="M93.73,123.8a1.45,1.45,0,1,1-.05,2.91,1.45,1.45,0,1,1,.05-2.91Z"/><path class="cls-1" d="M62.09,45.77a1.45,1.45,0,1,1,1.47-1.41A1.46,1.46,0,0,1,62.09,45.77Z"/><path class="cls-1" d="M70.59,37.25a1.44,1.44,0,1,1-1.47-1.42A1.46,1.46,0,0,1,70.59,37.25Z"/><path class="cls-1" d="M95.23,26.74a1.45,1.45,0,1,1-1.42-1.45A1.43,1.43,0,0,1,95.23,26.74Z"/><path class="cls-1" d="M139.41,106.29a1.44,1.44,0,1,1-1.42,1.46A1.44,1.44,0,0,1,139.41,106.29Z"/><path class="cls-1" d="M65.66,42.24a1.44,1.44,0,1,1,1.42-1.45A1.44,1.44,0,0,1,65.66,42.24Z"/><path class="cls-1" d="M52.94,83.06a1.46,1.46,0,1,1-1.4-1.47A1.44,1.44,0,0,1,52.94,83.06Z"/><path class="cls-1" d="M133.93,37.35a1.44,1.44,0,0,1-2.88,0,1.44,1.44,0,0,1,2.88,0Z"/><path class="cls-1" d="M132.38,113.33a1.44,1.44,0,1,1-1.42,1.46A1.44,1.44,0,0,1,132.38,113.33Z"/><path class="cls-1" d="M53,69a1.46,1.46,0,1,1-1.38-1.5A1.44,1.44,0,0,1,53,69Z"/><path class="cls-1" d="M139.43,45.82A1.43,1.43,0,1,1,141,44.49,1.41,1.41,0,0,1,139.43,45.82Z"/><path class="cls-1" d="M130.32,118.27a1.44,1.44,0,0,1-1.4,1.47,1.44,1.44,0,0,1,0-2.88A1.44,1.44,0,0,1,130.32,118.27Z"/><path class="cls-1" d="M74,118.19a1.39,1.39,0,0,1-1.4,1.45,1.42,1.42,0,1,1-.05-2.85A1.4,1.4,0,0,1,74,118.19Z"/><path class="cls-1" d="M59.94,104.2a1.4,1.4,0,0,1-1.5,1.36,1.42,1.42,0,0,1,.12-2.84A1.4,1.4,0,0,1,59.94,104.2Z"/><path class="cls-1" d="M144.39,104.21a1.44,1.44,0,0,1-1.42,1.45,1.44,1.44,0,0,1,0-2.88A1.43,1.43,0,0,1,144.39,104.21Z"/><path class="cls-1" d="M74.1,33.78a1.42,1.42,0,0,1-1.46,1.4,1.41,1.41,0,0,1,0-2.83A1.43,1.43,0,0,1,74.1,33.78Z"/><path class="cls-1" d="M88.07,125.31a1.39,1.39,0,0,1-1.49,1.35,1.41,1.41,0,0,1,.12-2.83A1.4,1.4,0,0,1,88.07,125.31Z"/><path class="cls-1" d="M58.58,46.42a1.41,1.41,0,1,1,0,2.83,1.41,1.41,0,0,1,0-2.83Z"/><path class="cls-1" d="M143.06,46.49a1.44,1.44,0,0,1,1.41,1.46A1.46,1.46,0,0,1,143,49.34a1.42,1.42,0,0,1-1.36-1.42A1.4,1.4,0,0,1,143.06,46.49Z"/><path class="cls-1" d="M129,35.27a1.42,1.42,0,0,1-1.41-1.44,1.4,1.4,0,0,1,1.37-1.41,1.44,1.44,0,0,1,1.47,1.4A1.46,1.46,0,0,1,129,35.27Z"/><path class="cls-1" d="M116.23,125.31a1.42,1.42,0,0,1-1.41,1.45,1.46,1.46,0,0,1-1.43-1.45,1.44,1.44,0,0,1,1.39-1.4A1.4,1.4,0,0,1,116.23,125.31Z"/><path class="cls-1" d="M151.4,90.11A1.4,1.4,0,0,1,150,91.56a1.45,1.45,0,0,1-1.41-1.39A1.43,1.43,0,0,1,150,88.73,1.38,1.38,0,0,1,151.4,90.11Z"/><path class="cls-1" d="M51.46,88.65a1.41,1.41,0,0,1,0,2.82,1.41,1.41,0,1,1,0-2.82Z"/><path class="cls-1" d="M51.65,60.5A1.44,1.44,0,0,1,53,62a1.42,1.42,0,0,1-1.51,1.35,1.41,1.41,0,0,1,.19-2.81Z"/><path class="cls-1" d="M86.77,25.32a1.44,1.44,0,0,1,1.38,1.41,1.43,1.43,0,0,1-1.47,1.39,1.4,1.4,0,0,1,.09-2.8Z"/><path class="cls-1" d="M151.5,62A1.45,1.45,0,0,1,150,63.41,1.4,1.4,0,0,1,148.69,62a1.38,1.38,0,0,1,1.44-1.4A1.42,1.42,0,0,1,151.5,62Z"/><path class="cls-1" d="M125.47,120.41a1.44,1.44,0,0,1,1.31,1.48,1.43,1.43,0,0,1-1.54,1.32,1.4,1.4,0,0,1,.23-2.8Z"/><path class="cls-1" d="M114.91,28.2a1.38,1.38,0,0,1-1.41-1.36,1.36,1.36,0,0,1,1.34-1.42,1.41,1.41,0,0,1,1.47,1.39A1.43,1.43,0,0,1,114.91,28.2Z"/><path class="cls-1" d="M146.51,99.3a1.4,1.4,0,1,1,0,2.79,1.4,1.4,0,0,1,0-2.79Z"/><path class="cls-1" d="M147.95,51.47a1.39,1.39,0,0,1-1.42,1.35A1.39,1.39,0,1,1,146.6,50,1.4,1.4,0,0,1,147.95,51.47Z"/><path class="cls-1" d="M77.52,121.77a1.42,1.42,0,0,1-1.43,1.36,1.38,1.38,0,0,1-1.37-1.47,1.36,1.36,0,0,1,1.44-1.31A1.41,1.41,0,0,1,77.52,121.77Z"/><path class="cls-1" d="M56.4,100.64A1.4,1.4,0,0,1,55,102a1.38,1.38,0,1,1,0-2.76A1.39,1.39,0,0,1,56.4,100.64Z"/><path class="cls-1" d="M55.07,50a1.37,1.37,0,1,1,0,2.73,1.36,1.36,0,1,1,0-2.73Z"/><path class="cls-1" d="M124.07,30.33a1.38,1.38,0,0,1,2.76-.06,1.39,1.39,0,0,1-1.34,1.44A1.41,1.41,0,0,1,124.07,30.33Z"/><path class="cls-1" d="M76.17,28.88a1.37,1.37,0,1,1,0,2.73,1.36,1.36,0,0,1,0-2.73Z"/><path class="cls-1" d="M105.62,128.88a1.36,1.36,0,1,1-2.72-.06,1.36,1.36,0,1,1,2.72.06Z"/><path class="cls-1" d="M98.59,128.77a1.36,1.36,0,1,1-1.33-1.35A1.34,1.34,0,0,1,98.59,128.77Z"/><path class="cls-1" d="M153.51,81a1.36,1.36,0,1,1,.07-2.73,1.37,1.37,0,0,1-.07,2.73Z"/><path class="cls-1" d="M153.55,73.91a1.36,1.36,0,1,1,0-2.73,1.36,1.36,0,0,1,0,2.73Z"/><path class="cls-1" d="M49.4,79.5a1.35,1.35,0,0,1-1.34,1.35,1.35,1.35,0,1,1,0-2.69A1.35,1.35,0,0,1,49.4,79.5Z"/><path class="cls-1" d="M48.07,71.12A1.34,1.34,0,1,1,48,73.81a1.34,1.34,0,0,1,.09-2.69Z"/><path class="cls-1" d="M104.34,24.64a1.35,1.35,0,0,1,0-2.7,1.36,1.36,0,0,1,1.38,1.37A1.38,1.38,0,0,1,104.34,24.64Z"/><path class="cls-1" d="M97.33,21.93a1.35,1.35,0,1,1-.08,2.7,1.35,1.35,0,0,1,.08-2.7Z"/><path class="cls-1" d="M81,125.25a1.38,1.38,0,0,1-1.34,1.35,1.35,1.35,0,0,1,0-2.7A1.36,1.36,0,0,1,81,125.25Z"/><path class="cls-1" d="M123.21,125.31a1.35,1.35,0,0,1-1.33,1.35,1.34,1.34,0,0,1,0-2.67A1.36,1.36,0,0,1,123.21,125.31Z"/><path class="cls-1" d="M151.35,97.18A1.35,1.35,0,0,1,150,98.51a1.33,1.33,0,0,1,0-2.66A1.36,1.36,0,0,1,151.35,97.18Z"/><path class="cls-1" d="M91.51,128.75a1.3,1.3,0,0,1-1.3,1.35,1.33,1.33,0,1,1,0-2.66A1.31,1.31,0,0,1,91.51,128.75Z"/><path class="cls-1" d="M150.12,53.62a1.33,1.33,0,0,1,0,2.66,1.33,1.33,0,1,1,0-2.66Z"/><path class="cls-1" d="M51.45,98.44a1.33,1.33,0,0,1-1.29-1.37,1.31,1.31,0,0,1,1.35-1.3,1.35,1.35,0,0,1,1.31,1.36A1.37,1.37,0,0,1,51.45,98.44Z"/><path class="cls-1" d="M154.84,86.64A1.33,1.33,0,0,1,153.49,88a1.37,1.37,0,0,1-1.3-1.31,1.34,1.34,0,0,1,1.33-1.35A1.3,1.3,0,0,1,154.84,86.64Z"/><path class="cls-1" d="M48,85.22a1.33,1.33,0,1,1-.22,2.64A1.33,1.33,0,0,1,48,85.22Z"/><path class="cls-1" d="M112.62,128.82a1.32,1.32,0,0,1-1.31,1.37,1.36,1.36,0,0,1-1.35-1.34,1.34,1.34,0,0,1,1.29-1.32A1.3,1.3,0,0,1,112.62,128.82Z"/><path class="cls-1" d="M49.37,65.44A1.35,1.35,0,0,1,48,66.75a1.32,1.32,0,0,1,0-2.65A1.36,1.36,0,0,1,49.37,65.44Z"/><path class="cls-1" d="M121.95,25.48a1.32,1.32,0,0,1,0,2.65,1.32,1.32,0,1,1,0-2.65Z"/><path class="cls-1" d="M51.57,56.21a1.36,1.36,0,0,1-1.35-1.34,1.34,1.34,0,0,1,1.36-1.32,1.3,1.3,0,0,1,1.3,1.29A1.32,1.32,0,0,1,51.57,56.21Z"/><path class="cls-1" d="M91.58,23.21a1.34,1.34,0,0,1-1.36,1.31,1.32,1.32,0,0,1,0-2.63A1.35,1.35,0,0,1,91.58,23.21Z"/><path class="cls-1" d="M81,26.69A1.31,1.31,0,0,1,79.72,28a1.35,1.35,0,0,1-1.35-1.32,1.32,1.32,0,0,1,1.27-1.31A1.29,1.29,0,0,1,81,26.69Z"/><path class="cls-1" d="M154.94,65.48a1.35,1.35,0,0,1-1.32,1.35,1.31,1.31,0,0,1-1.33-1.25,1.29,1.29,0,0,1,1.26-1.38A1.33,1.33,0,0,1,154.94,65.48Z"/><path class="cls-1" d="M111.41,22a1.31,1.31,0,1,1-.06,2.62,1.31,1.31,0,1,1,.06-2.62Z"/><path class="cls-1" d="M63.33,114.69a1.3,1.3,0,1,1-2.6,0,1.3,1.3,0,0,1,2.6,0Z"/><path class="cls-1" d="M139.45,113.49a1.29,1.29,0,1,1,0,2.57,1.29,1.29,0,0,1,0-2.57Z"/><path class="cls-1" d="M144.25,111.28a1.3,1.3,0,0,1-1.31,1.27,1.3,1.3,0,1,1,1.31-1.27Z"/><path class="cls-1" d="M137.21,118.25a1.3,1.3,0,0,1-1.24,1.33,1.3,1.3,0,0,1-.08-2.59A1.3,1.3,0,0,1,137.21,118.25Z"/><path class="cls-1" d="M66.83,118.19a1.28,1.28,0,1,1-1.3-1.25A1.26,1.26,0,0,1,66.83,118.19Z"/><path class="cls-1" d="M58.52,109.9a1.27,1.27,0,1,1-1.29,1.27A1.26,1.26,0,0,1,58.52,109.9Z"/><path class="cls-1" d="M62.15,38.57A1.29,1.29,0,0,1,62.07,36a1.29,1.29,0,0,1,.08,2.58Z"/><path class="cls-1" d="M139.53,36.08a1.27,1.27,0,1,1-1.29,1.27A1.26,1.26,0,0,1,139.53,36.08Z"/><path class="cls-1" d="M119.61,128.85a1.26,1.26,0,0,1-1.29,1.26,1.26,1.26,0,0,1,0-2.53A1.27,1.27,0,0,1,119.61,128.85Z"/><path class="cls-1" d="M66.91,33.73A1.26,1.26,0,0,1,65.65,35a1.26,1.26,0,0,1-.07-2.53A1.27,1.27,0,0,1,66.91,33.73Z"/><path class="cls-1" d="M59.87,40.82a1.26,1.26,0,0,1-1.31,1.24,1.26,1.26,0,0,1,0-2.53A1.27,1.27,0,0,1,59.87,40.82Z"/><path class="cls-1" d="M83.16,127.49a1.28,1.28,0,1,1,0,2.56,1.28,1.28,0,0,1,0-2.56Z"/><path class="cls-1" d="M136,32.56a1.28,1.28,0,1,1,0,2.56,1.28,1.28,0,0,1,0-2.56Z"/><path class="cls-1" d="M144.32,40.84a1.31,1.31,0,0,1-1.26,1.32A1.28,1.28,0,0,1,143,39.6,1.3,1.3,0,0,1,144.32,40.84Z"/><path class="cls-1" d="M69.05,120.47a1.28,1.28,0,0,1,1.29,1.28A1.3,1.3,0,0,1,69.1,123a1.27,1.27,0,0,1,0-2.53Z"/><path class="cls-1" d="M132.38,123.07a1.26,1.26,0,0,1,.07-2.51,1.26,1.26,0,1,1-.07,2.51Z"/><path class="cls-1" d="M48,59.66a1.26,1.26,0,1,1,0-2.52,1.24,1.24,0,0,1,1.22,1.32A1.25,1.25,0,0,1,48,59.66Z"/><path class="cls-1" d="M154.79,93.66a1.27,1.27,0,0,1-1.3,1.26,1.26,1.26,0,0,1,0-2.51A1.28,1.28,0,0,1,154.79,93.66Z"/><path class="cls-1" d="M146.47,106.48a1.28,1.28,0,0,1,1.29,1.27,1.26,1.26,0,0,1-1.24,1.24,1.23,1.23,0,0,1-1.27-1.19A1.24,1.24,0,0,1,146.47,106.48Z"/><path class="cls-1" d="M48,94.85a1.25,1.25,0,0,1-1.25-1.22A1.24,1.24,0,0,1,48,92.32a1.28,1.28,0,0,1,1.27,1.22A1.29,1.29,0,0,1,48,94.85Z"/><path class="cls-1" d="M153.62,59.72a1.27,1.27,0,0,1-1.29-1.27,1.28,1.28,0,0,1,1.24-1.24,1.26,1.26,0,0,1,0,2.51Z"/><path class="cls-1" d="M56.27,107.63a1.3,1.3,0,0,1-1.27,1.3,1.25,1.25,0,0,1-1.24-1.24,1.24,1.24,0,0,1,1.18-1.29A1.28,1.28,0,0,1,56.27,107.63Z"/><path class="cls-1" d="M83.26,24.46A1.28,1.28,0,0,1,82,23.27,1.26,1.26,0,0,1,83.15,22a1.22,1.22,0,0,1,1.32,1.22A1.24,1.24,0,0,1,83.26,24.46Z"/><path class="cls-1" d="M69.14,31.49a1.28,1.28,0,0,1-1.25-1.24A1.26,1.26,0,0,1,69.2,29a1.22,1.22,0,0,1,1.19,1.27A1.23,1.23,0,0,1,69.14,31.49Z"/><path class="cls-1" d="M55.09,43.08a1.22,1.22,0,0,1,1.22,1.24,1.24,1.24,0,0,1-1.22,1.25,1.28,1.28,0,0,1-1.28-1.29A1.26,1.26,0,0,1,55.09,43.08Z"/><path class="cls-1" d="M119.65,23.32a1.22,1.22,0,0,1-1.25,1.21,1.25,1.25,0,1,1,.07-2.5A1.24,1.24,0,0,1,119.65,23.32Z"/><path class="cls-1" d="M133.73,30.35a1.22,1.22,0,0,1-1.25,1.22,1.25,1.25,0,1,1,.06-2.5A1.24,1.24,0,0,1,133.73,30.35Z"/><path class="cls-1" d="M146.53,45.64a1.27,1.27,0,0,1-1.22-1.26,1.28,1.28,0,0,1,1.25-1.24,1.25,1.25,0,1,1,0,2.5Z"/><path class="cls-1" d="M100.74,131a1.25,1.25,0,0,1,0,2.5,1.27,1.27,0,0,1-1.29-1.27A1.28,1.28,0,0,1,100.74,131Z"/><path class="cls-1" d="M44.53,77.22a1.24,1.24,0,0,1,0-2.48,1.24,1.24,0,1,1,0,2.48Z"/><path class="cls-1" d="M157,77.29a1.23,1.23,0,1,1,0-2.45,1.23,1.23,0,1,1,0,2.45Z"/><path class="cls-1" d="M94.92,132.27a1.23,1.23,0,0,1-1.22,1.24,1.23,1.23,0,0,1,0-2.46A1.23,1.23,0,0,1,94.92,132.27Z"/><path class="cls-1" d="M72.56,126.48a1.26,1.26,0,0,1-1.19-1.29A1.27,1.27,0,0,1,72.59,124a1.23,1.23,0,1,1,0,2.46Z"/><path class="cls-1" d="M51.45,102.91a1.23,1.23,0,0,1,.11,2.46,1.23,1.23,0,1,1-.11-2.46Z"/><path class="cls-1" d="M73.87,26.74a1.21,1.21,0,1,1-1.15-1.23A1.23,1.23,0,0,1,73.87,26.74Z"/><path class="cls-1" d="M151.23,104.23a1.2,1.2,0,0,1-1.26,1.19,1.21,1.21,0,1,1,0-2.42A1.2,1.2,0,0,1,151.23,104.23Z"/><path class="cls-1" d="M51.54,46.61a1.22,1.22,0,1,1-1.19,1.28A1.24,1.24,0,0,1,51.54,46.61Z"/><path class="cls-1" d="M45.65,83a1.21,1.21,0,1,1-1.23-1.24A1.23,1.23,0,0,1,45.65,83Z"/><path class="cls-1" d="M107.78,133.58a1.21,1.21,0,1,1,0-2.42,1.21,1.21,0,0,1,0,2.42Z"/><path class="cls-1" d="M93.8,18.47a1.22,1.22,0,1,1-1.22,1.16A1.23,1.23,0,0,1,93.8,18.47Z"/><path class="cls-1" d="M100.82,18.55a1.21,1.21,0,1,1,0,2.42,1.21,1.21,0,0,1,0-2.42Z"/><path class="cls-1" d="M44.51,67.73A1.22,1.22,0,1,1,43.31,69,1.24,1.24,0,0,1,44.51,67.73Z"/><path class="cls-1" d="M130.11,125.32a1.2,1.2,0,0,1-1.23,1.22,1.21,1.21,0,1,1,0-2.42A1.2,1.2,0,0,1,130.11,125.32Z"/><path class="cls-1" d="M158.26,83.1a1.22,1.22,0,0,1-2.44,0A1.21,1.21,0,0,1,157,81.9,1.2,1.2,0,0,1,158.26,83.1Z"/><path class="cls-1" d="M151.29,47.95a1.21,1.21,0,1,1-1.14-1.23A1.19,1.19,0,0,1,151.29,47.95Z"/><path class="cls-1" d="M130.18,26.78a1.21,1.21,0,1,1-1.27-1.18A1.19,1.19,0,0,1,130.18,26.78Z"/><path class="cls-1" d="M157.1,67.83A1.2,1.2,0,1,1,155.91,69,1.2,1.2,0,0,1,157.1,67.83Z"/><path class="cls-1" d="M109.06,19.79a1.21,1.21,0,0,1-2.41,0,1.21,1.21,0,0,1,2.41,0Z"/><path class="cls-1" d="M157,91.31A1.17,1.17,0,0,1,157,89a1.17,1.17,0,1,1,0,2.34Z"/><path class="cls-1" d="M116,132.38a1.19,1.19,0,0,1-1.22,1.15,1.17,1.17,0,0,1,0-2.34A1.2,1.2,0,0,1,116,132.38Z"/><path class="cls-1" d="M77.27,128.78a1.15,1.15,0,0,1-1.19,1.16,1.17,1.17,0,0,1,0-2.34A1.16,1.16,0,0,1,77.27,128.78Z"/><path class="cls-1" d="M49.11,100.6a1.15,1.15,0,0,1-1.17,1.18,1.16,1.16,0,1,1,0-2.33A1.16,1.16,0,0,1,49.11,100.6Z"/><path class="cls-1" d="M157.15,60.82a1.16,1.16,0,0,1-.05,2.33,1.16,1.16,0,1,1,.05-2.33Z"/><path class="cls-1" d="M114.86,18.6A1.17,1.17,0,0,1,116,19.69a1.15,1.15,0,0,1-1.11,1.23,1.19,1.19,0,0,1-1.21-1.16A1.21,1.21,0,0,1,114.86,18.6Z"/><path class="cls-1" d="M49.2,51.32a1.19,1.19,0,0,1-1.09,1.19,1.15,1.15,0,0,1-1.22-1.13A1.16,1.16,0,0,1,48,50.19,1.2,1.2,0,0,1,49.2,51.32Z"/><path class="cls-1" d="M125.35,127.69a1.14,1.14,0,0,1,1.18,1.1A1.15,1.15,0,0,1,125.4,130a1.2,1.2,0,0,1-1.2-1.19A1.19,1.19,0,0,1,125.35,127.69Z"/><path class="cls-1" d="M87.85,132.32a1.21,1.21,0,0,1-1.23,1.15,1.16,1.16,0,0,1-1.12-1.24,1.14,1.14,0,0,1,1.17-1.1A1.19,1.19,0,0,1,87.85,132.32Z"/><path class="cls-1" d="M44.46,91.24a1.16,1.16,0,0,1-1.17-1.12,1.14,1.14,0,0,1,1.14-1.22A1.19,1.19,0,0,1,45.62,90,1.2,1.2,0,0,1,44.46,91.24Z"/><path class="cls-1" d="M85.58,19.62a1.16,1.16,0,0,1,1.29-1.07,1.14,1.14,0,0,1-.21,2.28A1.17,1.17,0,0,1,85.58,19.62Z"/><path class="cls-1" d="M77.34,23.18a1.18,1.18,0,0,1-1.11,1.17,1.15,1.15,0,1,1,0-2.31A1.19,1.19,0,0,1,77.34,23.18Z"/><path class="cls-1" d="M44.5,63.06a1.15,1.15,0,1,1,.07-2.3,1.15,1.15,0,0,1-.07,2.3Z"/><path class="cls-1" d="M153.59,50.29a1.15,1.15,0,1,1,0,2.29,1.15,1.15,0,0,1,0-2.29Z"/><path class="cls-1" d="M154.67,100.71a1.13,1.13,0,0,1-1.14,1.14,1.18,1.18,0,0,1-1.18-1.12,1.16,1.16,0,0,1,1.2-1.17A1.12,1.12,0,0,1,154.67,100.71Z"/><path class="cls-1" d="M125.43,24.42a1.13,1.13,0,1,1,0-2.27,1.13,1.13,0,1,1,0,2.27Z"/><path class="cls-1" d="M143,119.4a1.14,1.14,0,0,1-1.11-1.09,1.12,1.12,0,0,1,1.15-1.12,1.09,1.09,0,0,1,1.05,1.12A1.1,1.1,0,0,1,143,119.4Z"/><path class="cls-1" d="M97.26,134.71a1.12,1.12,0,0,1,1.07,1.12,1.13,1.13,0,0,1-1.18,1.09,1.1,1.1,0,0,1-1-1.16A1.08,1.08,0,0,1,97.26,134.71Z"/><path class="cls-1" d="M63.14,121.76A1.14,1.14,0,0,1,62,122.84a1.1,1.1,0,0,1-1.08-1.18,1.08,1.08,0,0,1,1.14-1A1.12,1.12,0,0,1,63.14,121.76Z"/><path class="cls-1" d="M59.61,118.2a1.07,1.07,0,0,1-1.06,1.11,1.1,1.1,0,1,1,0-2.2A1.08,1.08,0,0,1,59.61,118.2Z"/><path class="cls-1" d="M139.47,122.91a1.1,1.1,0,0,1-.08-2.19,1.1,1.1,0,1,1,.08,2.19Z"/><path class="cls-1" d="M147.6,114.75a1.11,1.11,0,0,1-1.07,1.12,1.07,1.07,0,0,1-1.13-1,1.08,1.08,0,0,1,1.09-1.16A1.12,1.12,0,0,1,147.6,114.75Z"/><path class="cls-1" d="M105.37,135.85a1.11,1.11,0,0,1-1.06,1.13,1.07,1.07,0,0,1-1.14-1,1.08,1.08,0,0,1,1.08-1.17A1.12,1.12,0,0,1,105.37,135.85Z"/><path class="cls-1" d="M58.63,32.67a1.09,1.09,0,1,1-.07,2.18,1.09,1.09,0,0,1,.07-2.18Z"/><path class="cls-1" d="M80.71,132.35a1.07,1.07,0,0,1-1.14,1,1.09,1.09,0,1,1,.11-2.18A1.08,1.08,0,0,1,80.71,132.35Z"/><path class="cls-1" d="M45.52,97.13a1.07,1.07,0,0,1-1.1,1.06A1.09,1.09,0,1,1,44.47,96,1.08,1.08,0,0,1,45.52,97.13Z"/><path class="cls-1" d="M160.59,78.49a1.09,1.09,0,1,1,0,2.18,1.09,1.09,0,0,1,0-2.18Z"/><path class="cls-1" d="M161.66,72.58a1.12,1.12,0,0,1-1.13,1.06,1.09,1.09,0,0,1,.06-2.18A1.12,1.12,0,0,1,161.66,72.58Z"/><path class="cls-1" d="M146.58,36.27a1.08,1.08,0,0,1,1.06,1.11,1.07,1.07,0,0,1-1.1,1.07,1.09,1.09,0,1,1,0-2.18Z"/><path class="cls-1" d="M122.93,132.37a1.08,1.08,0,0,1-1.08,1.09,1.12,1.12,0,0,1-1.1-1.09,1.1,1.1,0,0,1,1.1-1.08A1.06,1.06,0,0,1,122.93,132.37Z"/><path class="cls-1" d="M157.08,96.1a1.06,1.06,0,0,1,1,1.11,1.07,1.07,0,0,1-1.11,1,1.08,1.08,0,1,1,.07-2.16Z"/><path class="cls-1" d="M42.08,79.52A1.08,1.08,0,0,1,41,80.6a1.12,1.12,0,0,1-1.09-1.1A1.11,1.11,0,0,1,41,78.43,1.06,1.06,0,0,1,42.08,79.52Z"/><path class="cls-1" d="M42.07,72.58a1.07,1.07,0,0,1-1.19,1,1.11,1.11,0,0,1-1-1.19,1.09,1.09,0,0,1,1.21-1A1.06,1.06,0,0,1,42.07,72.58Z"/><path class="cls-1" d="M55,115.79a1.08,1.08,0,0,1-1-1.13,1.05,1.05,0,0,1,1.12-1,1.09,1.09,0,0,1,1.06,1.12A1.12,1.12,0,0,1,55,115.79Z"/><path class="cls-1" d="M143,32.76a1.11,1.11,0,0,1,1.11,1.07,1.12,1.12,0,0,1-1.09,1.1A1.08,1.08,0,0,1,142,33.85,1.06,1.06,0,0,1,143,32.76Z"/><path class="cls-1" d="M105.41,16.27a1.07,1.07,0,0,1-1.11,1.06,1.08,1.08,0,0,1,0-2.16A1.09,1.09,0,0,1,105.41,16.27Z"/><path class="cls-1" d="M44.54,56a1.07,1.07,0,0,1-1.09-1.08,1.09,1.09,0,0,1,1-1.09A1.08,1.08,0,1,1,44.54,56Z"/><path class="cls-1" d="M139.51,29.24a1.08,1.08,0,0,1,.07,2.16,1.08,1.08,0,1,1-.07-2.16Z"/><path class="cls-1" d="M97.3,15.16a1.08,1.08,0,0,1,0,2.16,1.08,1.08,0,1,1,0-2.16Z"/><path class="cls-1" d="M79.74,18.6a1.08,1.08,0,1,1-.09,2.16,1.08,1.08,0,0,1,.09-2.16Z"/><path class="cls-1" d="M51.48,112.25a1.1,1.1,0,0,1-1.08-1.09,1.11,1.11,0,0,1,1.11-1.07,1.09,1.09,0,0,1,1,1.06A1.08,1.08,0,0,1,51.48,112.25Z"/><path class="cls-1" d="M65.58,124.17a1.09,1.09,0,0,1,1,1.13,1.08,1.08,0,0,1-1.06,1,1.08,1.08,0,1,1,0-2.16Z"/><path class="cls-1" d="M51.59,41.86a1.07,1.07,0,1,1,1-1.13A1.08,1.08,0,0,1,51.59,41.86Z"/><path class="cls-1" d="M55.07,38.35a1.07,1.07,0,1,1,0-2.13,1.06,1.06,0,0,1,0,2.13Z"/><path class="cls-1" d="M112.36,135.87a1.06,1.06,0,1,1-1-1.05A1.09,1.09,0,0,1,112.36,135.87Z"/><path class="cls-1" d="M157.14,56a1.06,1.06,0,0,1-.07-2.13,1.06,1.06,0,1,1,.07,2.13Z"/><path class="cls-1" d="M161.63,86.6a1.06,1.06,0,1,1-1-1A1.09,1.09,0,0,1,161.63,86.6Z"/><path class="cls-1" d="M62.11,31.31a1.07,1.07,0,1,1,0-2.13,1.06,1.06,0,0,1,0,2.13Z"/><path class="cls-1" d="M135.94,126.39a1.06,1.06,0,1,1,0-2.12,1.06,1.06,0,0,1,0,2.12Z"/><path class="cls-1" d="M150,110.19a1.06,1.06,0,1,1,0,2.12,1.06,1.06,0,1,1,0-2.12Z"/><path class="cls-1" d="M123,19.77a1.09,1.09,0,0,1-1.11,1.06,1.06,1.06,0,0,1,0-2.12A1.08,1.08,0,0,1,123,19.77Z"/><path class="cls-1" d="M90.17,136.86a1,1,0,1,1,0-2.1,1,1,0,1,1,0,2.1Z"/><path class="cls-1" d="M137.07,26.76a1,1,0,0,1-1,1.08,1,1,0,1,1-.07-2.09A1,1,0,0,1,137.07,26.76Z"/><path class="cls-1" d="M66.67,26.72a1.05,1.05,0,0,1-1,1.06,1.06,1.06,0,1,1,0-2.11A1.05,1.05,0,0,1,66.67,26.72Z"/><path class="cls-1" d="M150,39.83a1,1,0,0,1,.11,2.09,1,1,0,1,1-.11-2.09Z"/><path class="cls-1" d="M112.43,16.25a1.08,1.08,0,0,1-1,1.06,1.06,1.06,0,1,1,0-2.11A1.08,1.08,0,0,1,112.43,16.25Z"/><path class="cls-1" d="M161.69,65.57a1.08,1.08,0,0,1-1.09,1,1.05,1.05,0,1,1,.12-2.11A1.08,1.08,0,0,1,161.69,65.57Z"/><path class="cls-1" d="M41,87.58a1,1,0,1,1,1-1.08A1,1,0,0,1,41,87.58Z"/><path class="cls-1" d="M90.3,15.13a1,1,0,1,1-.07,2.07,1,1,0,1,1,.07-2.07Z"/><path class="cls-1" d="M42,65.42a1,1,0,0,1-1,1,1,1,0,1,1,0-2.07A1,1,0,0,1,42,65.42Z"/><path class="cls-1" d="M70.09,128.84a1,1,0,0,1-1.11.95,1,1,0,0,1,.14-2A1,1,0,0,1,70.09,128.84Z"/><path class="cls-1" d="M133.43,128.82a1,1,0,0,1-1,1.07,1.06,1.06,0,0,1-1-1,1,1,0,0,1,1-1A1,1,0,0,1,133.43,128.82Z"/><path class="cls-1" d="M153.52,106.7a1,1,0,0,1,1,1.05,1,1,0,0,1-1,1,1.06,1.06,0,0,1-1.07-1A1,1,0,0,1,153.52,106.7Z"/><path class="cls-1" d="M49,107.66a1,1,0,0,1-1,1,1,1,0,1,1,0-2A1,1,0,0,1,49,107.66Z"/><path class="cls-1" d="M153.61,45.41a1,1,0,0,1-1-1,1,1,0,0,1,1-1,1,1,0,0,1,1,1A1,1,0,0,1,153.61,45.41Z"/><path class="cls-1" d="M132.48,24.3a1,1,0,0,1-1-1.07,1,1,0,0,1,1-1,1,1,0,0,1,1,1A1,1,0,0,1,132.48,24.3Z"/><path class="cls-1" d="M48,43.3a1,1,0,1,1,.06,2,1,1,0,0,1-.06-2Z"/><path class="cls-1" d="M69.14,24.21a1,1,0,0,1-1-1,1,1,0,0,1,1-1,1,1,0,1,1,0,2Z"/><path class="cls-1" d="M84.14,135.84a1,1,0,0,1-1,1,1,1,0,1,1,.07-2A1,1,0,0,1,84.14,135.84Z"/><path class="cls-1" d="M41.9,93.55a1,1,0,0,1-.95,1,1,1,0,0,1-1-1,1,1,0,0,1,1-1A1,1,0,0,1,41.9,93.55Z"/><path class="cls-1" d="M42,58.42a1,1,0,0,1-1,1,1,1,0,0,1,.05-2A1,1,0,0,1,42,58.42Z"/><path class="cls-1" d="M117.35,135.82a1,1,0,0,1,1.05-.91,1,1,0,1,1-.13,1.94A1,1,0,0,1,117.35,135.82Z"/><path class="cls-1" d="M160.58,92.69a1,1,0,1,1,0,1.95,1,1,0,1,1,0-1.95Z"/><path class="cls-1" d="M84.19,16.24a1,1,0,0,1-1,.9,1,1,0,1,1,1-.9Z"/><path class="cls-1" d="M160.6,59.44a1,1,0,1,1,1-1A1,1,0,0,1,160.6,59.44Z"/><path class="cls-1" d="M129.85,132.37a1,1,0,0,1-.92,1,1,1,0,1,1,0-2A1,1,0,0,1,129.85,132.37Z"/><path class="cls-1" d="M119.38,16.24a.94.94,0,0,1-.92,1,1,1,0,1,1,.92-1Z"/><path class="cls-1" d="M73.55,132.27a.93.93,0,0,1-.91,1,1,1,0,1,1,0-1.91A.94.94,0,0,1,73.55,132.27Z"/><path class="cls-1" d="M156.18,47.92a.94.94,0,0,1,.92-1,1,1,0,0,1,1,.91,1,1,0,0,1-1,1A1,1,0,0,1,156.18,47.92Z"/><path class="cls-1" d="M158,104.2a1,1,0,0,1-.91,1,1,1,0,0,1-1-1,1,1,0,0,1,1-.94A.94.94,0,0,1,158,104.2Z"/><path class="cls-1" d="M44.4,105.08a1,1,0,0,1-.92-1,1,1,0,0,1,1-.93.94.94,0,0,1,.87,1A.92.92,0,0,1,44.4,105.08Z"/><path class="cls-1" d="M44.49,48.78a.95.95,0,0,1,0-1.89.95.95,0,1,1,0,1.89Z"/><path class="cls-1" d="M101.68,139.34a.92.92,0,0,1-.94.93,1,1,0,0,1-1-.92,1,1,0,0,1,1-1A.93.93,0,0,1,101.68,139.34Z"/><path class="cls-1" d="M72.68,20.62a.94.94,0,0,1,0-1.87,1,1,0,0,1,1,.93A1,1,0,0,1,72.68,20.62Z"/><path class="cls-1" d="M37.51,75a1,1,0,0,1,.91,1,1,1,0,0,1-1,.9A.94.94,0,0,1,37.51,75Z"/><path class="cls-1" d="M94.63,139.31a.91.91,0,0,1-.91.95.93.93,0,1,1,0-1.87A.92.92,0,0,1,94.63,139.31Z"/><path class="cls-1" d="M128,19.77a.91.91,0,0,1,.92-.94,1,1,0,0,1,1,.92,1,1,0,0,1-.94.94A.93.93,0,0,1,128,19.77Z"/><path class="cls-1" d="M164.09,75.14a.91.91,0,0,1,.92.94.93.93,0,0,1-.94.93,1,1,0,0,1-.94-.95A1,1,0,0,1,164.09,75.14Z"/><path class="cls-1" d="M38.31,83.06a.92.92,0,0,1-.91.89,1,1,0,0,1-.93-1,1,1,0,0,1,.92-.89A.92.92,0,0,1,38.31,83.06Z"/><path class="cls-1" d="M36.57,68.91a.92.92,0,0,1,.91-.89.92.92,0,1,1,0,1.85A.92.92,0,0,1,36.57,68.91Z"/><path class="cls-1" d="M100.79,13.64a.9.9,0,0,1-.89-.9.89.89,0,0,1,.94-.92.93.93,0,0,1,.9.9A.94.94,0,0,1,100.79,13.64Z"/><path class="cls-1" d="M164.11,84a1,1,0,0,1-1-.92.93.93,0,0,1,.9-.9.89.89,0,0,1,.95.91A.9.9,0,0,1,164.11,84Z"/><path class="cls-1" d="M107.78,140.32a.94.94,0,0,1-.93-.88.92.92,0,0,1,.93-.94.91.91,0,1,1,0,1.82Z"/><path class="cls-1" d="M164.19,69.93a.91.91,0,1,1-.06-1.81.91.91,0,1,1,.06,1.81Z"/><path class="cls-1" d="M93.81,11.74a.91.91,0,1,1-.1,1.82.91.91,0,0,1,.1-1.82Z"/><path class="cls-1" d="M107.83,13.62a.89.89,0,1,1,.93-.84A.89.89,0,0,1,107.83,13.62Z"/><path class="cls-1" d="M77,135.84a.85.85,0,0,1-.92.84.87.87,0,0,1,.06-1.75A.86.86,0,0,1,77,135.84Z"/><path class="cls-1" d="M126.23,135.87a.87.87,0,0,1-.88.89.91.91,0,0,1-.85-.86.89.89,0,0,1,.9-.88A.85.85,0,0,1,126.23,135.87Z"/><path class="cls-1" d="M85.81,139.26a.85.85,0,0,1,.88-.8.89.89,0,0,1,.84.94.91.91,0,0,1-.9.81A.87.87,0,0,1,85.81,139.26Z"/><path class="cls-1" d="M147.34,121.79a.87.87,0,0,1-.88.9.91.91,0,0,1-.85-.86.89.89,0,0,1,.89-.89A.85.85,0,0,1,147.34,121.79Z"/><path class="cls-1" d="M161.42,100.68a.87.87,0,0,1-.88.89.91.91,0,0,1-.85-.86.89.89,0,0,1,.9-.88A.85.85,0,0,1,161.42,100.68Z"/><path class="cls-1" d="M41.78,100.65a.84.84,0,0,1-.85.83.88.88,0,0,1-.88-.9.89.89,0,0,1,.95-.83A.85.85,0,0,1,41.78,100.65Z"/><path class="cls-1" d="M114.81,140.27a.83.83,0,0,1-.85-.83.85.85,0,0,1,.87-.9.89.89,0,0,1,.86.84A.87.87,0,0,1,114.81,140.27Z"/><path class="cls-1" d="M150,119.15a.84.84,0,0,1-.83-.85.85.85,0,0,1,.89-.88.89.89,0,0,1,.85.86A.88.88,0,0,1,150,119.15Z"/><path class="cls-1" d="M143,126.19a.84.84,0,0,1-.86-.82.85.85,0,0,1,.85-.91.86.86,0,1,1,0,1.73Z"/><path class="cls-1" d="M57.66,125.28a.84.84,0,0,1,.79-.88.88.88,0,0,1,.93.84.9.9,0,0,1-.89.89A.86.86,0,0,1,57.66,125.28Z"/><path class="cls-1" d="M55.85,121.77a.84.84,0,0,1-.85.83.88.88,0,0,1-.88-.9.89.89,0,0,1,.95-.83A.85.85,0,0,1,55.85,121.77Z"/><path class="cls-1" d="M50.63,118.19a.84.84,0,0,1,.84-.84.88.88,0,0,1,.89.88.91.91,0,0,1-.85.85A.86.86,0,0,1,50.63,118.19Z"/><path class="cls-1" d="M164.1,91a.84.84,0,0,1-.87-.8.85.85,0,0,1,.83-.92.86.86,0,1,1,0,1.72Z"/><path class="cls-1" d="M75.35,16.18a.85.85,0,0,1,.81-.87.85.85,0,1,1,0,1.71A.84.84,0,0,1,75.35,16.18Z"/><path class="cls-1" d="M40.16,51.37A.85.85,0,0,1,41,50.5a.85.85,0,1,1,0,1.71A.84.84,0,0,1,40.16,51.37Z"/><path class="cls-1" d="M115.73,12.74a.84.84,0,0,1-.83.84.85.85,0,1,1,0-1.7A.85.85,0,0,1,115.73,12.74Z"/><path class="cls-1" d="M55,29.39a.89.89,0,0,1,.89.81.87.87,0,0,1-.87.9.84.84,0,0,1-.84-.84A.85.85,0,0,1,55,29.39Z"/><path class="cls-1" d="M150.92,33.81a.84.84,0,0,1-.79.88.88.88,0,0,1-.91-.86.9.9,0,0,1,.85-.85A.85.85,0,0,1,150.92,33.81Z"/><path class="cls-1" d="M165,62a.84.84,0,0,1-.85.82.85.85,0,1,1,.06-1.71A.85.85,0,0,1,165,62Z"/><path class="cls-1" d="M143.88,26.84a.84.84,0,0,1-.86.81.85.85,0,1,1,.07-1.7A.85.85,0,0,1,143.88,26.84Z"/><path class="cls-1" d="M38.32,61.91a.83.83,0,0,1-.82.85.87.87,0,0,1-.88-.88.86.86,0,0,1,.87-.81A.81.81,0,0,1,38.32,61.91Z"/><path class="cls-1" d="M124.61,16.27a.81.81,0,0,1,.8-.86.86.86,0,0,1,.9.85.88.88,0,0,1-.85.83A.83.83,0,0,1,124.61,16.27Z"/><path class="cls-1" d="M52.39,33.76a.82.82,0,0,1-.84.84.87.87,0,0,1-.86-.84.86.86,0,0,1,.86-.84A.81.81,0,0,1,52.39,33.76Z"/><path class="cls-1" d="M145.73,30.33a.81.81,0,0,1,.82-.84.86.86,0,0,1,.88.8.87.87,0,0,1-.87.89A.83.83,0,0,1,145.73,30.33Z"/><path class="cls-1" d="M59.43,26.73a.83.83,0,0,1-.85.83.87.87,0,0,1-.85-.85.86.86,0,0,1,.86-.83A.81.81,0,0,1,59.43,26.73Z"/><path class="cls-1" d="M160.62,50.6a.86.86,0,0,1,.89.79.88.88,0,0,1-.87.89.83.83,0,0,1-.83-.84A.81.81,0,0,1,160.62,50.6Z"/><path class="cls-1" d="M36.56,90.06a.81.81,0,0,1,.82-.84.86.86,0,0,1,.88.8.87.87,0,0,1-.88.88A.83.83,0,0,1,36.56,90.06Z"/><path class="cls-1" d="M48.79,114.66a.84.84,0,0,1-.8.87.86.86,0,0,1-.87-.81.88.88,0,0,1,.8-.88A.85.85,0,0,1,48.79,114.66Z"/><path class="cls-1" d="M62.86,128.74a.84.84,0,0,1-.8.87.86.86,0,0,1-.87-.81.88.88,0,0,1,.8-.88A.85.85,0,0,1,62.86,128.74Z"/><path class="cls-1" d="M62.92,23.18a.81.81,0,1,1-1.63,0,.81.81,0,1,1,1.63,0Z"/><path class="cls-1" d="M48.84,37.35a.82.82,0,0,1-.84.75.84.84,0,0,1-.78-.9.84.84,0,0,1,.85-.75A.83.83,0,0,1,48.84,37.35Z"/><path class="cls-1" d="M139.48,128a.82.82,0,0,1,0,1.64.82.82,0,1,1,0-1.64Z"/><path class="cls-1" d="M153.53,115.59a.82.82,0,1,1,0-1.64.82.82,0,0,1,0,1.64Z"/><path class="cls-1" d="M86.78,11.83a.82.82,0,0,1,0,1.64.82.82,0,1,1,0-1.64Z"/><path class="cls-1" d="M139.49,24.08a.79.79,0,0,1-.78-.79.81.81,0,0,1,.84-.81.8.8,0,0,1,.77.87A.79.79,0,0,1,139.49,24.08Z"/><path class="cls-1" d="M153.58,38.16a.79.79,0,0,1-.79-.79.8.8,0,0,1,.84-.82.8.8,0,1,1-.05,1.6Z"/><path class="cls-1" d="M65.53,133.06a.8.8,0,0,1-.76-.82.81.81,0,0,1,.84-.73.77.77,0,0,1,.7.78A.75.75,0,0,1,65.53,133.06Z"/><path class="cls-1" d="M45.2,111.16a.75.75,0,0,1-.77.79.8.8,0,0,1-.78-.8.82.82,0,0,1,.75-.75A.76.76,0,0,1,45.2,111.16Z"/><path class="cls-1" d="M157.81,111.29a.76.76,0,0,1-.82.74.8.8,0,0,1-.73-.77.78.78,0,0,1,.8-.77A.74.74,0,0,1,157.81,111.29Z"/><path class="cls-1" d="M136.69,132.37a.76.76,0,0,1-.79.77.8.8,0,0,1-.76-.81.78.78,0,0,1,.76-.72A.74.74,0,0,1,136.69,132.37Z"/><path class="cls-1" d="M66.39,19.71a.79.79,0,0,1-.76.74.76.76,0,1,1,0-1.52A.8.8,0,0,1,66.39,19.71Z"/><path class="cls-1" d="M44.53,41.56a.76.76,0,0,1-.76-.73.77.77,0,0,1,.7-.79.8.8,0,0,1,.81.77A.79.79,0,0,1,44.53,41.56Z"/><path class="cls-1" d="M79.61,140.09a.76.76,0,1,1,.07-1.52.77.77,0,0,1,.7.8A.76.76,0,0,1,79.61,140.09Z"/><path class="cls-1" d="M38.15,97.13a.76.76,0,0,1-.76.73.78.78,0,0,1-.74-.75.79.79,0,0,1,.8-.77A.77.77,0,0,1,38.15,97.13Z"/><path class="cls-1" d="M164.06,97.92a.74.74,0,1,1,.08-1.48.74.74,0,0,1-.08,1.48Z"/><path class="cls-1" d="M157.88,40.9a.75.75,0,0,1-.76.72.73.73,0,0,1-.74-.8.72.72,0,0,1,.79-.68A.75.75,0,0,1,157.88,40.9Z"/><path class="cls-1" d="M136.77,19.77a.75.75,0,0,1-.75.74A.74.74,0,1,1,136,19,.76.76,0,0,1,136.77,19.77Z"/><path class="cls-1" d="M105,142.93a.78.78,0,0,1-.75.75.76.76,0,0,1-.76-.81.77.77,0,0,1,.78-.71A.79.79,0,0,1,105,142.93Z"/><path class="cls-1" d="M122.61,139.41a.73.73,0,0,1-.74.74.74.74,0,1,1,0-1.49A.73.73,0,0,1,122.61,139.41Z"/><path class="cls-1" d="M97.19,142.1a.74.74,0,1,1,0,1.49.74.74,0,0,1,0-1.49Z"/><path class="cls-1" d="M167.58,78.84a.74.74,0,0,1,0,1.49.76.76,0,0,1-.75-.72A.77.77,0,0,1,167.58,78.84Z"/><path class="cls-1" d="M79.68,13.39a.74.74,0,0,1,.06-1.48.74.74,0,0,1-.06,1.48Z"/><path class="cls-1" d="M38.21,54.9a.75.75,0,0,1-.75.72.74.74,0,0,1,0-1.49A.74.74,0,0,1,38.21,54.9Z"/><path class="cls-1" d="M168.33,72.55a.74.74,0,0,1-.73.74.74.74,0,0,1,0-1.49A.74.74,0,0,1,168.33,72.55Z"/><path class="cls-1" d="M34,78.78a.72.72,0,1,1-.09,1.44.71.71,0,0,1-.67-.72A.72.72,0,0,1,34,78.78Z"/><path class="cls-1" d="M164.17,54.23a.72.72,0,0,1,.72.75.71.71,0,0,1-.7.69.72.72,0,1,1,0-1.44Z"/><path class="cls-1" d="M121.91,12a.72.72,0,0,1,.75.72.73.73,0,0,1-1.47,0A.72.72,0,0,1,121.91,12Z"/><path class="cls-1" d="M34.7,72.5a.72.72,0,0,1-.79.69A.72.72,0,0,1,34,71.74.72.72,0,0,1,34.7,72.5Z"/><path class="cls-1" d="M97.29,8.5a.74.74,0,0,1,.73.73.76.76,0,0,1-.7.7.71.71,0,0,1-.72-.74A.69.69,0,0,1,97.29,8.5Z"/><path class="cls-1" d="M105.06,9.17a.75.75,0,0,1-.72.76.71.71,0,0,1-.7-.68.69.69,0,0,1,.63-.74A.73.73,0,0,1,105.06,9.17Z"/><path class="cls-1" d="M133.11,135.87a.7.7,0,0,1-.66.73.74.74,0,0,1-.75-.73.73.73,0,0,1,.71-.69A.69.69,0,0,1,133.11,135.87Z"/><path class="cls-1" d="M112,142.92a.7.7,0,0,1-.67.72.74.74,0,0,1-.74-.75.73.73,0,0,1,.73-.67A.68.68,0,0,1,112,142.92Z"/><path class="cls-1" d="M90.88,142.81a.68.68,0,0,1-.64.74.72.72,0,0,1-.77-.71.73.73,0,0,1,.7-.7A.69.69,0,0,1,90.88,142.81Z"/><path class="cls-1" d="M69.77,135.82a.68.68,0,0,1-.7.69.71.71,0,1,1,0-1.41A.69.69,0,0,1,69.77,135.82Z"/><path class="cls-1" d="M33.86,87.24a.73.73,0,0,1-.67-.72.74.74,0,0,1,.73-.67.69.69,0,0,1,.66.72A.68.68,0,0,1,33.86,87.24Z"/><path class="cls-1" d="M34,64.73a.74.74,0,0,1,.71.69.73.73,0,0,1-.69.7.68.68,0,0,1-.69-.68A.69.69,0,0,1,34,64.73Z"/><path class="cls-1" d="M40.88,107a.69.69,0,0,1,.72.66.68.68,0,0,1-.65.73.72.72,0,0,1-.73-.66A.74.74,0,0,1,40.88,107Z"/><path class="cls-1" d="M160.53,107.06a.68.68,0,1,1,.06,1.36.71.71,0,0,1-.73-.65A.7.7,0,0,1,160.53,107.06Z"/><path class="cls-1" d="M167.66,64.83a.69.69,0,0,1,.72.65.72.72,0,0,1-.67.71.68.68,0,0,1-.71-.66A.66.66,0,0,1,167.66,64.83Z"/><path class="cls-1" d="M167.56,85.94a.68.68,0,1,1,.07,1.36.71.71,0,0,1-.73-.65A.7.7,0,0,1,167.56,85.94Z"/><path class="cls-1" d="M41,45a.68.68,0,0,1,0-1.35A.68.68,0,0,1,41,45Z"/><path class="cls-1" d="M69.82,16.2a.7.7,0,0,1-.67.64.68.68,0,0,1,0-1.35A.71.71,0,0,1,69.82,16.2Z"/><path class="cls-1" d="M90.94,9.11a.7.7,0,0,1-.69.7.68.68,0,0,1,0-1.35A.73.73,0,0,1,90.94,9.11Z"/><path class="cls-1" d="M160.64,43.74a.66.66,0,1,1-.66.62A.66.66,0,0,1,160.64,43.74Z"/><path class="cls-1" d="M112,9.21a.65.65,0,0,1-.71.65.66.66,0,1,1,.08-1.31A.65.65,0,0,1,112,9.21Z"/><path class="cls-1" d="M132.48,15.59a.66.66,0,1,1-.65.63A.64.64,0,0,1,132.48,15.59Z"/><path class="cls-1" d="M73.18,139.29a.61.61,0,0,1-.56.64.6.6,0,0,1-.07-1.21A.61.61,0,0,1,73.18,139.29Z"/><path class="cls-1" d="M167.64,94.26a.61.61,0,0,1-.63-.56.62.62,0,0,1,.55-.64.65.65,0,0,1,.64.57A.63.63,0,0,1,167.64,94.26Z"/><path class="cls-1" d="M118.34,143.53a.61.61,0,0,1-.59-.6.61.61,0,0,1,.59-.6.64.64,0,0,1,.6.61A.63.63,0,0,1,118.34,143.53Z"/><path class="cls-1" d="M128.9,138.82a.58.58,0,1,1,0,1.16.58.58,0,1,1,0-1.16Z"/><path class="cls-1" d="M83.75,142.85a.6.6,0,0,1-.61.58.58.58,0,1,1,0-1.16A.6.6,0,0,1,83.75,142.85Z"/><path class="cls-1" d="M33.85,94.16A.58.58,0,1,1,33.92,93a.58.58,0,0,1,.56.61A.59.59,0,0,1,33.85,94.16Z"/><path class="cls-1" d="M168.25,58.48a.59.59,0,0,1-.62.56.57.57,0,0,1,0-1.14A.59.59,0,0,1,168.25,58.48Z"/><path class="cls-1" d="M38,47.86a.58.58,0,0,1-.55.55.57.57,0,1,1,.05-1.14A.57.57,0,0,1,38,47.86Z"/><path class="cls-1" d="M118.41,8.63a.59.59,0,0,1,.58.6.61.61,0,0,1-.56.55.58.58,0,0,1,0-1.15Z"/><path class="cls-1" d="M38,104.15a.59.59,0,0,1-.62.56.57.57,0,0,1,0-1.14A.59.59,0,0,1,38,104.15Z"/><path class="cls-1" d="M55,128.23a.53.53,0,0,1,.49.58.52.52,0,0,1-.57.5.56.56,0,0,1-.51-.58A.57.57,0,0,1,55,128.23Z"/><path class="cls-1" d="M164.15,47.35a.56.56,0,0,1,0,1.12.56.56,0,1,1,0-1.12Z"/><path class="cls-1" d="M164.65,104.24a.57.57,0,0,1-.63.52.56.56,0,0,1,.06-1.11A.57.57,0,0,1,164.65,104.24Z"/><path class="cls-1" d="M34.53,58.42a.57.57,0,0,1-.63.53A.56.56,0,0,1,34,57.83.57.57,0,0,1,34.53,58.42Z"/><path class="cls-1" d="M83.8,9.16a.57.57,0,0,1-.63.53.56.56,0,0,1,.05-1.11A.57.57,0,0,1,83.8,9.16Z"/><path class="cls-1" d="M48.49,121.73a.53.53,0,0,1-.54.54.54.54,0,1,1,0-1.08A.53.53,0,0,1,48.49,121.73Z"/><path class="cls-1" d="M150,125.88a.52.52,0,0,1-.58-.48.54.54,0,0,1,.51-.62.55.55,0,1,1,.06,1.11Z"/><path class="cls-1" d="M129.5,12.73a.53.53,0,0,1-.53.54.54.54,0,1,1,0-1.08A.54.54,0,0,1,129.5,12.73Z"/><path class="cls-1" d="M150.1,26.26a.53.53,0,0,1,.51.56.53.53,0,0,1-.55.52.54.54,0,1,1,0-1.07Z"/><path class="cls-1" d="M147,128.89a.53.53,0,0,1-.57.5.57.57,0,0,1-.51-.57.55.55,0,0,1,.58-.49A.51.51,0,0,1,147,128.89Z"/><path class="cls-1" d="M72.66,13.19a.58.58,0,0,1-.54-.55.55.55,0,0,1,.55-.52.51.51,0,0,1,.53.54A.54.54,0,0,1,72.66,13.19Z"/><path class="cls-1" d="M52,125.22a.56.56,0,0,1-.52.56.53.53,0,0,1-.56-.51.51.51,0,0,1,.5-.56A.55.55,0,0,1,52,125.22Z"/><path class="cls-1" d="M153.53,121.28a.51.51,0,0,1,.52.54.54.54,0,0,1-.54.53.58.58,0,0,1-.54-.55A.55.55,0,0,1,153.53,121.28Z"/><path class="cls-1" d="M52.26,26.76c-.33.21-.51.41-.71.44s-.47-.17-.5-.47a.46.46,0,0,1,.55-.49C51.8,26.31,52,26.52,52.26,26.76Z"/><path class="cls-1" d="M48.55,30.38a1.66,1.66,0,0,1-.49.36c-.26.08-.55-.22-.53-.51a.5.5,0,0,1,.48-.51C48.28,29.69,48.56,30,48.55,30.38Z"/><path class="cls-1" d="M147.27,23.32c-.32.21-.5.4-.71.45a.45.45,0,0,1-.49-.55c.05-.3.25-.49.54-.41S147,23.08,147.27,23.32Z"/><path class="cls-1" d="M55.75,23.21c-.28.22-.44.43-.65.5s-.54-.22-.54-.5.29-.59.55-.5A2.82,2.82,0,0,1,55.75,23.21Z"/><path class="cls-1" d="M157.72,118.3c-.3.22-.46.43-.67.49s-.54-.26-.51-.54.25-.5.52-.45S157.44,118.07,157.72,118.3Z"/><path class="cls-1" d="M59.22,132.3c-.32.22-.49.42-.7.47a.45.45,0,0,1-.51-.53c0-.3.24-.5.53-.43S58.91,132.07,59.22,132.3Z"/><path class="cls-1" d="M143.47,132.2c0,.41-.23.7-.51.68a.49.49,0,0,1-.5-.48c0-.28.25-.61.51-.54A1.65,1.65,0,0,1,143.47,132.2Z"/><path class="cls-1" d="M153.7,30.84c-.44-.06-.61-.23-.6-.53a.46.46,0,0,1,.5-.48c.3,0,.6.29.5.55S153.8,30.72,153.7,30.84Z"/><path class="cls-1" d="M101.45,146.39c-.32.22-.5.41-.71.46a.45.45,0,0,1-.5-.54c0-.3.24-.5.53-.42S101.14,146.15,101.45,146.39Z"/><path class="cls-1" d="M108.25,146.47c0,.27-.28.53-.51.43a.85.85,0,0,1-.43-.46c-.08-.23.22-.49.48-.48A.47.47,0,0,1,108.25,146.47Z"/><path class="cls-1" d="M93.55,146.83a1.54,1.54,0,0,1-.32-.49c-.06-.24.24-.47.5-.45a.44.44,0,0,1,.43.46C94.18,146.63,94,146.84,93.55,146.83Z"/><path class="cls-1" d="M44.27,118.67a1.53,1.53,0,0,1-.29-.51c0-.25.27-.46.53-.42a.44.44,0,0,1,.4.48C44.91,118.51,44.69,118.7,44.27,118.67Z"/><path class="cls-1" d="M143.2,19.29a1.63,1.63,0,0,1,.32.51c.05.24-.27.49-.51.45a.46.46,0,0,1-.42-.47C142.57,19.5,142.79,19.28,143.2,19.29Z"/><path class="cls-1" d="M157.81,33.79c-.31.25-.47.46-.67.51s-.43-.12-.48-.39.15-.58.41-.54A2.91,2.91,0,0,1,157.81,33.79Z"/><path class="cls-1" d="M45.21,33.72c-.32.24-.48.44-.68.49s-.43-.12-.47-.39.16-.57.41-.53A3,3,0,0,1,45.21,33.72Z"/><path class="cls-1" d="M30.57,75.51a1.57,1.57,0,0,1,.34.49c.07.24-.22.48-.49.46A.43.43,0,0,1,30,76C30,75.74,30.16,75.52,30.57,75.51Z"/><path class="cls-1" d="M171.59,76.2a1.54,1.54,0,0,1-.49.33.42.42,0,0,1-.45-.49.83.83,0,0,1,.45-.44C171.34,75.52,171.59,75.79,171.59,76.2Z"/><path class="cls-1" d="M59.22,19.72c-.3.19-.47.38-.65.4s-.42-.18-.41-.46.2-.47.46-.41S58.95,19.5,59.22,19.72Z"/><path class="cls-1" d="M30.41,69.6c-.19-.31-.37-.48-.39-.66a.38.38,0,0,1,.44-.43.4.4,0,0,1,.42.46C30.84,69.15,30.64,69.3,30.41,69.6Z"/><path class="cls-1" d="M30.41,82.38c.18.31.36.48.38.67s-.17.43-.45.41a.4.4,0,0,1-.41-.47C30,82.82,30.18,82.67,30.41,82.38Z"/><path class="cls-1" d="M171.22,69.64c-.21-.28-.4-.42-.44-.6s.14-.43.41-.44.47.16.45.41S171.42,69.35,171.22,69.64Z"/><path class="cls-1" d="M171.14,82.49c.19.29.38.45.4.63s-.17.42-.44.41-.46-.19-.42-.44S170.92,82.77,171.14,82.49Z"/><path class="cls-1" d="M101.46,5.72c-.31.19-.47.37-.66.39s-.43-.16-.41-.44.2-.45.46-.39S101.17,5.5,101.46,5.72Z"/><path class="cls-1" d="M108.5,5.72c-.31.19-.48.36-.67.38s-.42-.17-.4-.45.21-.45.46-.38S108.21,5.51,108.5,5.72Z"/><path class="cls-1" d="M76.75,142.86c-.32.19-.49.38-.67.38s-.35-.22-.38-.38a.34.34,0,0,1,.41-.43C76.29,142.47,76.45,142.65,76.75,142.86Z"/><path class="cls-1" d="M93.79,5c.18.26.37.42.36.57a.61.61,0,0,1-.35.41c-.21.08-.49-.2-.42-.42S93.6,5.29,93.79,5Z"/><path class="cls-1" d="M160.63,114.2c.15.28.33.46.31.6a.62.62,0,0,1-.39.38c-.21.06-.47-.26-.38-.46S160.41,114.43,160.63,114.2Z"/><path class="cls-1" d="M167.61,100.12c.18.26.37.42.36.57a.61.61,0,0,1-.35.41c-.21.08-.49-.2-.42-.42S167.42,100.37,167.61,100.12Z"/><path class="cls-1" d="M161.22,37.39a2.48,2.48,0,0,1-.58.37.37.37,0,0,1-.38-.46.6.6,0,0,1,.43-.33C160.83,37,161,37.19,161.22,37.39Z"/><path class="cls-1" d="M168.26,51.46a2.5,2.5,0,0,1-.58.38.37.37,0,0,1-.38-.46.61.61,0,0,1,.42-.33C167.86,51,168,51.26,168.26,51.46Z"/><path class="cls-1" d="M140,135.91c-.26.18-.4.34-.57.38s-.49-.26-.39-.45a.64.64,0,0,1,.43-.34C139.62,135.5,139.77,135.71,140,135.91Z"/><path class="cls-1" d="M125.38,143.51a2.49,2.49,0,0,1-.4-.57c-.06-.22.2-.46.43-.43s.4.19.35.42S125.56,143.25,125.38,143.51Z"/><path class="cls-1" d="M41,114.12c.16.28.34.46.31.59a.56.56,0,0,1-.38.36.33.33,0,0,1-.38-.44C40.57,114.48,40.76,114.36,41,114.12Z"/><path class="cls-1" d="M62,135.23c.18.27.37.43.36.57a.56.56,0,0,1-.36.39.33.33,0,0,1-.41-.41C61.67,135.62,61.85,135.49,62,135.23Z"/><path class="cls-1" d="M41,36.7c.19.27.37.41.39.57a.33.33,0,0,1-.43.39.56.56,0,0,1-.33-.41C40.62,37.11,40.82,37,41,36.7Z"/><path class="cls-1" d="M140.1,16.23a2.46,2.46,0,0,1-.54.41.35.35,0,0,1-.41-.41.59.59,0,0,1,.38-.36C139.68,15.85,139.84,16,140.1,16.23Z"/><path class="cls-1" d="M34.55,51.34c-.26.19-.39.35-.56.4s-.4-.09-.42-.33.12-.48.4-.44S34.28,51.16,34.55,51.34Z"/><path class="cls-1" d="M34.46,100.68c-.28.16-.46.34-.59.31a.56.56,0,0,1-.37-.38.34.34,0,0,1,.45-.38C34.09,100.28,34.21,100.46,34.46,100.68Z"/><path class="cls-1" d="M125.4,9.78c-.16-.27-.33-.44-.31-.58a.6.6,0,0,1,.37-.38c.21-.06.47.24.39.44S125.61,9.54,125.4,9.78Z"/><path class="cls-1" d="M76.76,9.24c-.34.12-.52.25-.68.22s-.25-.28-.22-.41.26-.3.37-.28S76.5,9,76.76,9.24Z"/><path class="cls-1" d="M171.69,90.26c-.34.12-.52.25-.68.22a.47.47,0,0,1-.22-.41c0-.12.26-.3.37-.28S171.43,90,171.69,90.26Z"/><path class="cls-1" d="M171.18,61.45c.18.24.34.36.37.51a.3.3,0,0,1-.35.39c-.14,0-.35-.21-.35-.33S171,61.71,171.18,61.45Z"/><path class="cls-1" d="M62.69,16.11c-.28.21-.42.39-.58.4s-.32-.19-.33-.32.16-.37.27-.38S62.37,16,62.69,16.11Z"/><path class="cls-1" d="M115.4,146.45c-.3.18-.46.34-.62.34s-.3-.23-.3-.35.2-.35.31-.34S115.1,146.26,115.4,146.45Z"/><path class="cls-1" d="M30.38,89.54c.17.25.34.4.34.55s-.21.3-.34.32A.3.3,0,0,1,30,90C30,89.9,30.2,89.78,30.38,89.54Z"/><path class="cls-1" d="M30.94,62c-.22.14-.39.32-.49.29a.59.59,0,0,1-.36-.38.3.3,0,0,1,.42-.3C30.65,61.62,30.75,61.78,30.94,62Z"/><path class="cls-1" d="M86.68,145.84c.17.25.34.4.34.55s-.21.3-.34.32a.3.3,0,0,1-.36-.37C86.35,146.2,86.5,146.08,86.68,145.84Z"/><path class="cls-1" d="M164.11,111.72c-.17-.22-.35-.35-.34-.47s.2-.26.33-.31.27.18.27.27S164.24,111.49,164.11,111.72Z"/><path class="cls-1" d="M135.9,139.88c-.14-.24-.3-.39-.28-.5a.53.53,0,0,1,.36-.28c.06,0,.26.21.24.31S136.06,139.66,135.9,139.88Z"/><path class="cls-1" d="M114.87,5.22c.17.22.35.35.34.47s-.19.26-.33.31-.27-.17-.27-.27S114.73,5.46,114.87,5.22Z"/><path class="cls-1" d="M37.8,111.18c-.16.13-.29.31-.36.29s-.24-.19-.36-.3c.12-.1.23-.26.37-.29S37.65,111,37.8,111.18Z"/><path class="cls-1" d="M65.57,139.77c-.15-.2-.3-.32-.32-.45s.2-.3.26-.28a.57.57,0,0,1,.33.31C65.87,139.42,65.71,139.56,65.57,139.77Z"/><path class="cls-1" d="M86.74,5.17c.14.2.29.32.31.46s-.21.29-.27.27a.56.56,0,0,1-.32-.31C86.43,5.51,86.6,5.37,86.74,5.17Z"/><path class="cls-1" d="M80,146.4c-.19.11-.3.22-.42.22s-.23-.19-.21-.25.17-.27.27-.28S79.84,146.26,80,146.4Z"/><path class="cls-1" d="M65.59,12.26c.14.16.3.27.3.37s-.15.23-.26.28-.24-.13-.24-.21S65.49,12.46,65.59,12.26Z"/><path class="cls-1" d="M37.49,40.41c.12.19.27.31.25.41s-.18.2-.31.24-.21-.17-.2-.25S37.36,40.59,37.49,40.41Z"/><path class="cls-1" d="M164.68,40.91c-.24.11-.36.22-.46.2s-.22-.14-.33-.22c.07-.09.14-.26.21-.26S164.34,40.74,164.68,40.91Z"/><path class="cls-1" d="M136.31,12.81a1,1,0,0,1-.37.15c-.07,0-.13-.17-.2-.27.11-.07.22-.19.34-.21s.23.07.35.12Z"/><path class="cls-1" d="M79.66,5.35c.11.1.22.15.23.21s-.07.16-.11.24a1.22,1.22,0,0,1-.27-.18S79.58,5.47,79.66,5.35Z"/><path class="cls-1" d="M30.41,97.37c-.11-.1-.22-.15-.23-.22s.07-.16.11-.24a1.2,1.2,0,0,1,.27.18S30.49,97.24,30.41,97.37Z"/><path class="cls-1" d="M171.48,55c-.16.06-.28.13-.31.11a.46.46,0,0,1-.16-.27s.17-.15.22-.12S171.37,54.9,171.48,55Z"/><path class="cls-1" d="M171.13,97.48c-.1-.13-.21-.21-.2-.26s.12-.17.19-.26.2.13.2.18S171.22,97.33,171.13,97.48Z"/><path class="cls-1" d="M69.36,142.93c-.16.06-.28.13-.31.11a.46.46,0,0,1-.16-.27s.17-.15.22-.12S69.24,142.8,69.36,142.93Z"/><path class="cls-1" d="M132.41,142.66c.09.11.19.18.19.24s-.1.15-.15.22l-.25-.21Z"/><path class="cls-1" d="M167.88,107.73c-.12.1-.22.21-.26.2s-.16-.14-.23-.22c.07-.05.15-.15.22-.15S167.76,107.64,167.88,107.73Z"/><path class="cls-1" d="M34.17,107.75c-.16.06-.28.13-.31.11a.46.46,0,0,1-.16-.27s.17-.15.22-.12S34.05,107.61,34.17,107.75Z"/><path class="cls-1" d="M30.48,54.61c.07.12.16.21.15.27s-.12.13-.19.2a1.11,1.11,0,0,1-.2-.25S30.37,54.71,30.48,54.61Z"/><path class="cls-1" d="M167.73,44.66c-.11-.1-.22-.15-.23-.22s.07-.16.11-.23a1.2,1.2,0,0,1,.27.18S167.8,44.54,167.73,44.66Z"/><path class="cls-1" d="M34.28,44.37a1.28,1.28,0,0,1-.39.13s-.13-.15-.12-.22.14-.19.18-.17S34.13,44.24,34.28,44.37Z"/><path class="cls-1" d="M122.22,5.78c-.16.06-.28.13-.31.11a.46.46,0,0,1-.16-.27s.17-.15.22-.12S122.1,5.64,122.22,5.78Z"/><path class="cls-1" d="M121.87,146.14c.09.15.18.24.19.34s-.13.12-.2.18-.16-.16-.19-.26S121.77,146.27,121.87,146.14Z"/><polygon class="cls-2" points="140.51 126.87 140.11 126.87 140.07 135.68 140.49 135.68 145.5 133.28 145.52 129.32 140.51 126.87"/><path class="cls-3" d="M148.72,130.88l-3.2-1.56,0,4,3.22-1.54A.48.48,0,0,0,148.72,130.88Z"/><polygon class="cls-4" points="140.07 134.73 140.07 135.68 140.49 135.68 145.5 133.28 145.51 131.71 140.29 133.03 140.07 134.73"/><polygon class="cls-5" points="69.9 135.41 140.28 135.68 140.32 128.26 69.92 127.99 69.9 135.41"/><polygon class="cls-6" points="69.92 128.53 140.31 128.8 140.32 126.87 69.93 126.6 69.92 128.53"/><polygon class="cls-3" points="69.9 135.41 140.28 135.68 140.29 133.03 69.91 132.76 69.9 135.41"/><path class="cls-7" d="M59.86,135.36l-3.86,0a.63.63,0,0,1-.63-.64l0-7.55a.63.63,0,0,1,.64-.63l3.86,0a.63.63,0,0,1,.63.64l0,7.55A.63.63,0,0,1,59.86,135.36Z"/><polygon class="cls-2" points="59.31 135.37 70.22 135.4 70.26 126.59 59.35 126.55 59.31 135.37"/><rect class="cls-4" x="63.37" y="128.53" width="2.81" height="10.91" transform="translate(-69.5 198.16) rotate(-89.75)"/><rect class="cls-8" x="48.66" y="40.21" width="104.4" height="76.86" rx="2.29" ry="2.29"/><rect class="cls-9" x="50.96" y="41.9" width="99.81" height="71.96"/><path class="cls-10" d="M149.24,111V39.46c-35.18-5.35-48.18,8.41-48.18,8.41s-13-13.77-48.18-8.41V111Z"/><path class="cls-11" d="M149.24,105.22V33.72c-35.18-5.35-48.18,8.41-48.18,8.41s-13-13.77-48.18-8.41v71.5Z"/><path class="cls-12" d="M149.24,33.72c-35.18-5.35-48.18,8.41-48.18,8.41v63.09h48.18Z"/><circle class="cls-13" cx="100.86" cy="21.98" r="14.79"/><path class="cls-14" d="M123.51,22.47a22.47,22.47,0,1,0-44.93,0S75.42,46.26,101,65.18C126.68,46.26,123.51,22.47,123.51,22.47Zm-21.6,10.6a10.63,10.63,0,1,1,9.73-9.73A10.63,10.63,0,0,1,101.91,33.06Z"/><path class="cls-7" d="M114.36,76.33l.09.07,9.91,7.75,9.87-7.79.09-.07a6.11,6.11,0,1,0-7.57-9.59l-2.42,1.91-2.43-1.9a6.11,6.11,0,0,0-7.53,9.62Z"/><path class="cls-15" d="M137,18.29l.51-1.91a.56.56,0,0,1,1.07,0l.51,1.91a.56.56,0,0,0,.39.39l1.91.51a.56.56,0,0,1,0,1.07l-1.91.51a.56.56,0,0,0-.39.39l-.51,1.91a.56.56,0,0,1-1.07,0L137,21.18a.56.56,0,0,0-.39-.39l-1.91-.51a.56.56,0,0,1,0-1.07l1.91-.51A.56.56,0,0,0,137,18.29Z"/><path class="cls-13" d="M154.38,123.55l.39-1.43a.42.42,0,0,1,.81,0l.39,1.43a.42.42,0,0,0,.29.29l1.43.39a.42.42,0,0,1,0,.81l-1.43.39a.42.42,0,0,0-.29.29l-.39,1.43a.42.42,0,0,1-.81,0l-.39-1.43a.42.42,0,0,0-.29-.29l-1.43-.39a.42.42,0,0,1,0-.81l1.43-.39A.42.42,0,0,0,154.38,123.55Z"/><path class="cls-13" d="M46,133.58l.39-1.43a.42.42,0,0,1,.81,0l.39,1.43a.42.42,0,0,0,.29.29l1.43.39a.42.42,0,0,1,0,.81l-1.43.39a.42.42,0,0,0-.29.29l-.39,1.43a.42.42,0,0,1-.81,0L46,135.74a.42.42,0,0,0-.29-.29l-1.43-.39a.42.42,0,0,1,0-.81l1.43-.39A.42.42,0,0,0,46,133.58Z"/><path class="cls-13" d="M2,88.41,2.42,87a.42.42,0,0,1,.81,0l.39,1.43a.42.42,0,0,0,.29.29l1.43.39a.42.42,0,0,1,0,.81l-1.43.39a.42.42,0,0,0-.29.29L3.23,92a.42.42,0,0,1-.81,0L2,90.58a.42.42,0,0,0-.29-.29L.31,89.9a.42.42,0,0,1,0-.81l1.43-.39A.42.42,0,0,0,2,88.41Z"/><path class="cls-14" d="M156.7,135.69l.24-.9a.26.26,0,0,1,.5,0l.24.9a.26.26,0,0,0,.18.18l.9.24a.26.26,0,0,1,0,.5l-.9.24a.26.26,0,0,0-.18.18l-.24.9a.26.26,0,0,1-.5,0l-.24-.9a.26.26,0,0,0-.18-.18l-.9-.24a.26.26,0,0,1,0-.5l.9-.24A.26.26,0,0,0,156.7,135.69Z"/><path class="cls-14" d="M27.43,120l.33-1.23a.36.36,0,0,1,.69,0l.33,1.23a.36.36,0,0,0,.25.25l1.23.33a.36.36,0,0,1,0,.69l-1.23.33a.36.36,0,0,0-.25.25l-.33,1.23a.36.36,0,0,1-.69,0l-.33-1.23a.36.36,0,0,0-.25-.25l-1.23-.33a.36.36,0,0,1,0-.69l1.23-.33A.36.36,0,0,0,27.43,120Z"/><path class="cls-14" d="M32.5,25l.33-1.23a.36.36,0,0,1,.69,0L33.86,25a.36.36,0,0,0,.25.25l1.23.33a.36.36,0,0,1,0,.69l-1.23.33a.36.36,0,0,0-.25.25l-.33,1.23a.36.36,0,0,1-.69,0l-.33-1.23a.36.36,0,0,0-.25-.25L31,26.25a.36.36,0,0,1,0-.69l1.23-.33A.36.36,0,0,0,32.5,25Z"/><path class="cls-12" d="M168.28,122.48l.33-1.23a.36.36,0,0,1,.69,0l.33,1.23a.36.36,0,0,0,.25.25l1.23.33a.36.36,0,0,1,0,.69l-1.23.33a.36.36,0,0,0-.25.25l-.33,1.23a.36.36,0,0,1-.69,0l-.33-1.23a.36.36,0,0,0-.25-.25l-1.23-.33a.36.36,0,0,1,0-.69l1.23-.33A.36.36,0,0,0,168.28,122.48Z"/><path class="cls-12" d="M150.87,24.82l.33-1.23a.36.36,0,0,1,.69,0l.33,1.23a.36.36,0,0,0,.25.25l1.23.33a.36.36,0,0,1,0,.69l-1.23.33a.36.36,0,0,0-.25.25l-.33,1.23a.36.36,0,0,1-.69,0l-.33-1.23a.36.36,0,0,0-.25-.25l-1.23-.33a.36.36,0,0,1,0-.69l1.23-.33A.36.36,0,0,0,150.87,24.82Z"/><path class="cls-12" d="M39,122.82l.33-1.23a.36.36,0,0,1,.69,0l.33,1.23a.36.36,0,0,0,.25.25l1.23.33a.36.36,0,0,1,0,.69l-1.23.33a.36.36,0,0,0-.25.25L40,125.92a.36.36,0,0,1-.69,0L39,124.69a.36.36,0,0,0-.25-.25l-1.23-.33a.36.36,0,0,1,0-.69l1.23-.33A.36.36,0,0,0,39,122.82Z"/><path class="cls-5" d="M4.5,50l.33-1.23a.36.36,0,0,1,.69,0L5.86,50a.36.36,0,0,0,.25.25l1.23.33a.36.36,0,0,1,0,.69l-1.23.33a.36.36,0,0,0-.25.25l-.33,1.23a.36.36,0,0,1-.69,0L4.5,51.83a.36.36,0,0,0-.25-.25L3,51.25a.36.36,0,0,1,0-.69l1.23-.33A.36.36,0,0,0,4.5,50Z"/><path class="cls-7" d="M66.32,18.87l.43-1.61a.47.47,0,0,1,.91,0l.43,1.61a.47.47,0,0,0,.33.33l1.61.43a.47.47,0,0,1,0,.91L68.43,21a.47.47,0,0,0-.33.33l-.43,1.61a.47.47,0,0,1-.91,0l-.43-1.61A.47.47,0,0,0,66,21l-1.61-.43a.47.47,0,0,1,0-.91L66,19.21A.47.47,0,0,0,66.32,18.87Z"/><path class="cls-7" d="M158.47,9.51V116.34h17.34V9.51Zm8.24,104.2a1.39,1.39,0,1,1,1.39-1.39A1.39,1.39,0,0,1,166.71,113.71Z"/><rect class="cls-6" x="160.02" y="11.91" width="3.1" height="0.76"/><rect class="cls-6" x="160.02" y="14.71" width="3.1" height="0.76"/><rect class="cls-6" x="160.02" y="17.5" width="3.1" height="0.76"/><rect class="cls-6" x="160.02" y="20.29" width="3.1" height="0.76"/><rect class="cls-6" x="160.02" y="23.09" width="7.35" height="0.76"/><rect class="cls-6" x="160.02" y="25.77" width="3.1" height="0.76"/><rect class="cls-6" x="160.02" y="28.56" width="3.1" height="0.76"/><rect class="cls-6" x="160.02" y="31.36" width="3.1" height="0.76"/><rect class="cls-6" x="160.02" y="34.15" width="3.1" height="0.76"/><rect class="cls-6" x="160.02" y="36.94" width="7.35" height="0.76"/><rect class="cls-6" x="160.02" y="39.63" width="3.1" height="0.76"/><rect class="cls-6" x="160.02" y="42.42" width="3.1" height="0.76"/><rect class="cls-6" x="160.02" y="45.21" width="3.1" height="0.76"/><rect class="cls-6" x="160.02" y="48.01" width="3.1" height="0.76"/><rect class="cls-6" x="160.02" y="50.8" width="7.35" height="0.76"/><rect class="cls-6" x="160.02" y="53.48" width="3.1" height="0.76"/><rect class="cls-6" x="160.02" y="56.28" width="3.1" height="0.76"/><rect class="cls-6" x="160.02" y="59.07" width="3.1" height="0.76"/><rect class="cls-6" x="160.02" y="61.86" width="3.1" height="0.76"/><rect class="cls-6" x="160.02" y="64.66" width="7.35" height="0.76"/><rect class="cls-6" x="160.02" y="67.34" width="3.1" height="0.76"/><rect class="cls-6" x="160.02" y="70.13" width="3.1" height="0.76"/><rect class="cls-6" x="160.02" y="72.93" width="3.1" height="0.76"/><rect class="cls-6" x="160.02" y="75.72" width="3.1" height="0.76"/><rect class="cls-6" x="160.02" y="78.51" width="7.35" height="0.76"/><rect class="cls-6" x="160.02" y="81.2" width="3.1" height="0.76"/><rect class="cls-6" x="160.02" y="83.99" width="3.1" height="0.76"/><rect class="cls-6" x="160.02" y="86.78" width="3.1" height="0.76"/><rect class="cls-6" x="160.02" y="89.58" width="3.1" height="0.76"/><rect class="cls-6" x="160.02" y="92.37" width="7.35" height="0.76"/><rect class="cls-6" x="160.02" y="95.05" width="3.1" height="0.76"/><rect class="cls-6" x="160.02" y="97.85" width="3.1" height="0.76"/><rect class="cls-6" x="160.02" y="100.64" width="3.1" height="0.76"/><rect class="cls-6" x="160.02" y="103.43" width="3.1" height="0.76"/><rect class="cls-6" x="160.02" y="106.23" width="7.35" height="0.76"/><rect class="cls-16" x="172.09" y="9.51" width="3.72" height="106.83"/><rect class="cls-17" x="31.58" y="108.15" width="12.06" height="7.32" rx="1.95" ry="1.95" transform="translate(75.22 223.61) rotate(180)"/><path class="cls-7" d="M31.58,85.45a2,2,0,0,1,1.95-1.95H41.7a2,2,0,0,1,1.95,1.95v7.87H31.58Z"/><rect class="cls-5" x="31.58" y="93.32" width="12.06" height="1.54"/><path class="cls-13" d="M43.64,94.87V111a2,2,0,0,1-1.95,1.95H33.53A2,2,0,0,1,31.58,111V94.87Z"/><path class="cls-2" d="M42.63,34.58a1.51,1.51,0,0,1,0,.18,1.54,1.54,0,1,1-3.07,0,1.51,1.51,0,0,1,0-.18H38.25a1.52,1.52,0,0,1,0,.18,1.54,1.54,0,1,1-3.07,0,1.51,1.51,0,0,1,0-.18H33.58a1.51,1.51,0,0,1,0,.18,1.54,1.54,0,1,1-3.07,0,1.51,1.51,0,0,1,0-.18H28.91a1.51,1.51,0,0,1,0,.18,1.54,1.54,0,1,1-3.06-.18H24.24a1.49,1.49,0,0,1,0,.18,1.54,1.54,0,1,1-3.07,0,1.51,1.51,0,0,1,0-.18H19.57a1.51,1.51,0,0,1,0,.18,1.54,1.54,0,1,1-3.07,0,1.51,1.51,0,0,1,0-.18H14.85V75.24H44.37V34.58Z"/><rect class="cls-5" x="13.74" y="84.6" width="4.75" height="9.33"/><rect class="cls-3" x="13.74" y="84.6" width="2.4" height="9.33"/><circle class="cls-7" cx="16.12" cy="71.94" r="15.08"/><circle class="cls-16" cx="16.12" cy="71.94" r="12.1"/><circle class="cls-18" cx="16.12" cy="71.94" r="11.14"/><circle class="cls-8" cx="16.12" cy="71.94" r="9.65"/><path class="cls-15" d="M22.74,72.83a1.44,1.44,0,0,1-1.44-1.44,4.46,4.46,0,0,0-4.45-4.45,1.44,1.44,0,0,1,0-2.87,7.34,7.34,0,0,1,7.33,7.33A1.44,1.44,0,0,1,22.74,72.83Z"/><circle class="cls-15" cx="22.51" cy="75.08" r="1.4"/><rect class="cls-14" x="11.11" y="92.33" width="10.02" height="23.65"/><rect class="cls-3" x="11.11" y="92.33" width="5.21" height="23.65"/><rect class="cls-8" x="11.11" y="92.33" width="10.02" height="3.96"/><rect class="cls-18" x="11.11" y="92.33" width="5.21" height="3.96"/><rect class="cls-8" x="11.11" y="114.73" width="10.02" height="2.76"/><rect class="cls-18" x="11.11" y="114.73" width="5.21" height="2.76"/><path class="cls-14" d="M176.52,55l.51-1.91a.56.56,0,0,1,1.07,0l.51,1.91a.56.56,0,0,0,.39.39l1.91.51a.56.56,0,0,1,0,1.07l-1.91.51a.56.56,0,0,0-.39.39l-.51,1.91a.56.56,0,0,1-1.07,0l-.51-1.91a.56.56,0,0,0-.39-.39L174.22,57a.56.56,0,0,1,0-1.07l1.91-.51A.56.56,0,0,0,176.52,55Z"/></g></g></svg>